<?xml version="1.0" encoding="UTF-8"?>
<svg xmlns="http://www.w3.org/2000/svg" xmlns:xlink="http://www.w3.org/1999/xlink" width="104.88pt" height="82.499998pt" viewBox="0 0 104.88 82.499998" version="1.2">
<defs>
<clipPath id="clip1">
  <path d="M 12.40625 0 L 85 0 L 85 44 L 12.40625 44 Z M 12.40625 0 "/>
</clipPath>
<clipPath id="clip2">
  <path d="M 23 38 L 95 38 L 95 82.003906 L 23 82.003906 Z M 23 38 "/>
</clipPath>
<clipPath id="clip3">
  <path d="M 12.40625 15 L 95 15 L 95 66 L 12.40625 66 Z M 12.40625 15 "/>
</clipPath>
</defs>
<g id="surface1">
<path style=" stroke:none;fill-rule:nonzero;fill:rgb(0%,0%,0%);fill-opacity:1;" d="M 78.949219 45.164062 L 76.128906 46.320312 C 73.757812 56.699219 64.589844 64.386719 53.695312 64.386719 C 49.144531 64.386719 44.976562 63.039062 41.386719 60.796875 L 38.566406 61.949219 C 42.796875 65.089844 48.054688 66.949219 53.695312 66.949219 C 66.449219 66.949219 77.027344 57.464844 78.949219 45.164062 Z M 78.949219 45.164062 "/>
<path style=" stroke:none;fill-rule:nonzero;fill:rgb(0%,0%,0%);fill-opacity:1;" d="M 28.4375 36.835938 L 31.257812 35.683594 C 33.632812 25.304688 42.796875 17.617188 53.695312 17.617188 C 58.246094 17.617188 62.414062 18.964844 66 21.207031 L 68.824219 20.050781 C 64.589844 16.914062 59.335938 15.054688 53.695312 15.054688 C 40.9375 15.054688 30.363281 24.535156 28.4375 36.835938 Z M 28.4375 36.835938 "/>
<g clip-path="url(#clip1)" clip-rule="nonzero">
<path style=" stroke:none;fill-rule:nonzero;fill:rgb(0%,0%,0%);fill-opacity:1;" d="M 13.246094 42.667969 L 13.566406 43.050781 L 16.003906 42.027344 L 15.234375 41 L 20.105469 34.980469 L 17.542969 27.675781 L 24.144531 23.703125 L 24.207031 15.953125 L 31.773438 14.542969 L 34.464844 7.238281 L 42.027344 8.519531 L 47.027344 2.5625 L 53.695312 6.40625 L 60.359375 2.5625 L 65.359375 8.457031 L 72.925781 7.175781 L 75.617188 14.480469 L 80.105469 15.3125 L 83.949219 13.710938 C 84.078125 13.644531 84.207031 13.644531 84.269531 13.582031 C 84.078125 13.453125 83.820312 13.390625 83.566406 13.324219 L 77.410156 12.171875 L 75.230469 6.277344 C 74.847656 5.253906 73.886719 4.613281 72.859375 4.613281 C 72.734375 4.613281 72.605469 4.613281 72.410156 4.675781 L 66.257812 5.703125 L 62.21875 0.898438 C 61.707031 0.320312 61.003906 0 60.296875 0 C 59.847656 0 59.464844 0.128906 59.015625 0.320312 L 53.695312 3.460938 L 48.246094 0.320312 C 47.859375 0.0625 47.414062 0 46.964844 0 C 46.257812 0 45.554688 0.320312 45.039062 0.898438 L 41.003906 5.703125 L 34.847656 4.675781 C 34.71875 4.675781 34.59375 4.613281 34.398438 4.613281 C 33.375 4.613281 32.414062 5.253906 32.027344 6.277344 L 29.847656 12.171875 L 23.695312 13.324219 C 22.476562 13.582031 21.644531 14.605469 21.644531 15.824219 L 21.644531 22.230469 L 16.257812 25.433594 C 15.234375 26.074219 14.722656 27.355469 15.167969 28.507812 L 17.222656 34.46875 L 13.246094 39.335938 C 12.476562 40.296875 12.476562 41.707031 13.246094 42.667969 Z M 13.246094 42.667969 "/>
</g>
<g clip-path="url(#clip2)" clip-rule="nonzero">
<path style=" stroke:none;fill-rule:nonzero;fill:rgb(0%,0%,0%);fill-opacity:1;" d="M 93.820312 38.953125 L 91.386719 39.976562 L 92.15625 41 L 87.285156 47.023438 L 89.847656 54.328125 L 83.246094 58.300781 L 83.179688 66.050781 L 75.617188 67.460938 L 72.925781 74.765625 L 65.359375 73.480469 L 60.359375 79.375 L 53.695312 75.597656 L 47.027344 79.441406 L 42.027344 73.546875 L 34.464844 74.828125 L 31.773438 67.523438 L 27.285156 66.691406 L 23.4375 68.292969 C 23.3125 68.355469 23.183594 68.355469 23.117188 68.421875 C 23.3125 68.550781 23.566406 68.613281 23.824219 68.675781 L 29.976562 69.832031 L 32.15625 75.726562 C 32.542969 76.75 33.503906 77.390625 34.527344 77.390625 C 34.65625 77.390625 34.785156 77.390625 34.976562 77.328125 L 41.128906 76.300781 L 45.167969 81.105469 C 45.683594 81.683594 46.386719 82.003906 47.09375 82.003906 C 47.539062 82.003906 47.925781 81.875 48.375 81.683594 L 53.824219 78.542969 L 59.269531 81.683594 C 59.65625 81.9375 60.105469 82.003906 60.554688 82.003906 C 61.257812 82.003906 61.964844 81.683594 62.476562 81.105469 L 66.515625 76.300781 L 72.667969 77.328125 C 72.796875 77.328125 72.925781 77.390625 73.117188 77.390625 C 74.144531 77.390625 75.105469 76.75 75.488281 75.726562 L 77.667969 69.832031 L 83.820312 68.675781 C 85.039062 68.421875 85.875 67.394531 85.875 66.179688 L 85.9375 59.835938 L 91.320312 56.632812 C 92.347656 55.992188 92.859375 54.710938 92.410156 53.558594 L 90.359375 47.601562 L 94.335938 42.730469 C 95.105469 41.769531 95.105469 40.425781 94.335938 39.464844 Z M 93.820312 38.953125 "/>
</g>
<g clip-path="url(#clip3)" clip-rule="nonzero">
<path style=" stroke:none;fill-rule:nonzero;fill:rgb(0%,0%,0%);fill-opacity:1;" d="M 88.117188 26.84375 L 88.4375 18.644531 C 88.4375 17.746094 88.050781 16.914062 87.347656 16.402344 C 86.898438 16.082031 86.386719 15.953125 85.875 15.953125 C 85.550781 15.953125 85.230469 16.015625 84.910156 16.144531 L 14.273438 45.550781 C 13.4375 45.871094 12.863281 46.640625 12.734375 47.472656 C 12.605469 48.304688 12.863281 49.203125 13.503906 49.84375 L 19.207031 55.160156 L 18.953125 63.359375 C 18.953125 64.257812 19.335938 65.089844 20.042969 65.539062 C 20.488281 65.859375 21.003906 65.988281 21.515625 65.988281 C 21.835938 65.988281 22.15625 65.921875 22.476562 65.792969 L 93.179688 36.390625 C 94.015625 36.070312 94.589844 35.300781 94.71875 34.46875 C 94.847656 33.570312 94.589844 32.738281 93.949219 32.097656 Z M 21.515625 63.488281 L 21.835938 54.070312 L 15.234375 47.921875 L 85.9375 18.515625 L 85.617188 27.867188 L 92.21875 34.019531 Z M 21.515625 63.488281 "/>
</g>
</g>
</svg>
