<?xml version="1.0" encoding="UTF-8"?>
<svg xmlns="http://www.w3.org/2000/svg" xmlns:xlink="http://www.w3.org/1999/xlink" width="960pt" height="528.750001pt" viewBox="0 0 960 528.750001" version="1.2">
<defs>
<clipPath id="clip1">
  <path d="M 0.226562 0 L 959.773438 0 L 959.773438 528.5 L 0.226562 528.5 Z M 0.226562 0 "/>
</clipPath>
<clipPath id="clip2">
  <path d="M 819 7 L 959.773438 7 L 959.773438 302 L 819 302 Z M 819 7 "/>
</clipPath>
<clipPath id="clip3">
  <path d="M 0.226562 344 L 221 344 L 221 528.5 L 0.226562 528.5 Z M 0.226562 344 "/>
</clipPath>
<clipPath id="clip4">
  <path d="M 0.226562 0 L 163 0 L 163 261 L 0.226562 261 Z M 0.226562 0 "/>
</clipPath>
<clipPath id="clip5">
  <path d="M 558 436 L 695 436 L 695 528.5 L 558 528.5 Z M 558 436 "/>
</clipPath>
<clipPath id="clip6">
  <path d="M 919 476 L 959.773438 476 L 959.773438 528.5 L 919 528.5 Z M 919 476 "/>
</clipPath>
<clipPath id="clip7">
  <path d="M 822 497 L 872 497 L 872 528.5 L 822 528.5 Z M 822 497 "/>
</clipPath>
</defs>
<g id="surface1">
<g clip-path="url(#clip1)" clip-rule="nonzero">
<path style=" stroke:none;fill-rule:nonzero;fill:rgb(100%,100%,100%);fill-opacity:1;" d="M 0.226562 0 L 959.773438 0 L 959.773438 535.246094 L 0.226562 535.246094 Z M 0.226562 0 "/>
<path style=" stroke:none;fill-rule:nonzero;fill:rgb(100%,100%,100%);fill-opacity:1;" d="M 0.226562 0 L 959.773438 0 L 959.773438 528.5 L 0.226562 528.5 Z M 0.226562 0 "/>
<path style=" stroke:none;fill-rule:nonzero;fill:rgb(100%,100%,100%);fill-opacity:1;" d="M 0.226562 0 L 959.773438 0 L 959.773438 528.5 L 0.226562 528.5 Z M 0.226562 0 "/>
</g>
<path style=" stroke:none;fill-rule:nonzero;fill:rgb(91.758728%,90.589905%,97.24884%);fill-opacity:1;" d="M 466.46875 247.339844 C 466.46875 321.476562 406.371094 381.578125 332.230469 381.578125 C 258.09375 381.578125 197.992188 321.476562 197.992188 247.339844 C 197.992188 173.199219 258.09375 113.097656 332.230469 113.097656 C 406.371094 113.097656 466.46875 173.199219 466.46875 247.339844 "/>
<path style=" stroke:none;fill-rule:nonzero;fill:rgb(91.758728%,90.589905%,97.24884%);fill-opacity:1;" d="M 681.039062 248.394531 C 681.039062 283.421875 652.644531 311.816406 617.621094 311.816406 C 582.59375 311.816406 554.199219 283.421875 554.199219 248.394531 C 554.199219 213.371094 582.59375 184.976562 617.621094 184.976562 C 652.644531 184.976562 681.039062 213.371094 681.039062 248.394531 "/>
<path style=" stroke:none;fill-rule:nonzero;fill:rgb(91.758728%,90.589905%,97.24884%);fill-opacity:1;" d="M 618.675781 343.523438 C 618.675781 274.054688 674.992188 217.742188 744.460938 217.742188 C 813.929688 217.742188 870.242188 274.054688 870.242188 343.523438 C 870.242188 412.992188 813.929688 469.308594 744.460938 469.308594 C 674.992188 469.308594 618.675781 412.992188 618.675781 343.523438 "/>
<path style=" stroke:none;fill-rule:nonzero;fill:rgb(91.758728%,90.589905%,97.24884%);fill-opacity:1;" d="M 746.574219 122.082031 C 746.574219 171.410156 706.585938 211.398438 657.257812 211.398438 C 607.929688 211.398438 567.941406 171.410156 567.941406 122.082031 C 567.941406 72.753906 607.929688 32.765625 657.257812 32.765625 C 706.585938 32.765625 746.574219 72.753906 746.574219 122.082031 "/>
<path style=" stroke:none;fill-rule:nonzero;fill:rgb(91.758728%,90.589905%,97.24884%);fill-opacity:1;" d="M 532.003906 381.578125 C 532.003906 423.609375 497.933594 457.679688 455.898438 457.679688 C 413.867188 457.679688 379.796875 423.609375 379.796875 381.578125 C 379.796875 339.542969 413.867188 305.472656 455.898438 305.472656 C 497.933594 305.472656 532.003906 339.542969 532.003906 381.578125 "/>
<path style=" stroke:none;fill-rule:nonzero;fill:rgb(91.758728%,90.589905%,97.24884%);fill-opacity:1;" d="M 277.265625 164.890625 C 277.265625 201.667969 247.453125 231.484375 210.675781 231.484375 C 173.898438 231.484375 144.085938 201.667969 144.085938 164.890625 C 144.085938 128.117188 173.898438 98.300781 210.675781 98.300781 C 247.453125 98.300781 277.265625 128.117188 277.265625 164.890625 "/>
<path style=" stroke:none;fill-rule:nonzero;fill:rgb(91.758728%,90.589905%,97.24884%);fill-opacity:1;" d="M 490.78125 85.089844 C 490.78125 108.148438 472.089844 126.839844 449.027344 126.839844 C 425.96875 126.839844 407.277344 108.148438 407.277344 85.089844 C 407.277344 62.027344 425.96875 43.335938 449.027344 43.335938 C 472.089844 43.335938 490.78125 62.027344 490.78125 85.089844 "/>
<g clip-path="url(#clip2)" clip-rule="nonzero">
<path style=" stroke:none;fill-rule:nonzero;fill:rgb(91.758728%,90.589905%,97.24884%);fill-opacity:1;" d="M 966.429688 7.398438 C 885.285156 7.398438 819.507812 73.175781 819.507812 154.320312 C 819.507812 235.46875 885.285156 301.246094 966.429688 301.246094 C 987.902344 301.246094 1008.292969 296.636719 1026.679688 288.363281 L 1026.679688 20.285156 C 1008.292969 12.007812 987.902344 7.398438 966.429688 7.398438 "/>
</g>
<g clip-path="url(#clip3)" clip-rule="nonzero">
<path style=" stroke:none;fill-rule:nonzero;fill:rgb(91.758728%,90.589905%,97.24884%);fill-opacity:1;" d="M 42.085938 344.582031 C 16.300781 344.582031 -8.199219 350.070312 -30.320312 359.925781 L -30.320312 528.5 L 220.085938 528.5 C 220.148438 526.566406 220.1875 524.636719 220.1875 522.6875 C 220.1875 424.324219 140.445312 344.582031 42.085938 344.582031 "/>
</g>
<g clip-path="url(#clip4)" clip-rule="nonzero">
<path style=" stroke:none;fill-rule:nonzero;fill:rgb(91.758728%,90.589905%,97.24884%);fill-opacity:1;" d="M 162.054688 123.667969 C 162.054688 68.902344 129.761719 21.6875 83.183594 0 L -30.320312 0 L -30.320312 248.019531 C -13.230469 255.726562 5.734375 260.023438 25.699219 260.023438 C 101.007812 260.023438 162.054688 198.976562 162.054688 123.667969 "/>
</g>
<g clip-path="url(#clip5)" clip-rule="nonzero">
<path style=" stroke:none;fill-rule:nonzero;fill:rgb(91.758728%,90.589905%,97.24884%);fill-opacity:1;" d="M 626.605469 436.542969 C 588.953125 436.542969 558.429688 467.066406 558.429688 504.71875 C 558.429688 513.082031 559.945312 521.09375 562.699219 528.5 L 690.511719 528.5 C 693.265625 521.09375 694.78125 513.082031 694.78125 504.71875 C 694.78125 467.066406 664.257812 436.542969 626.605469 436.542969 "/>
</g>
<g clip-path="url(#clip6)" clip-rule="nonzero">
<path style=" stroke:none;fill-rule:nonzero;fill:rgb(91.758728%,90.589905%,97.24884%);fill-opacity:1;" d="M 1026.679688 476.726562 C 1026.152344 476.71875 1025.625 476.707031 1025.09375 476.707031 C 982.269531 476.707031 944.191406 497.003906 919.9375 528.5 L 1026.679688 528.5 L 1026.679688 476.726562 "/>
</g>
<path style=" stroke:none;fill-rule:nonzero;fill:rgb(91.758728%,90.589905%,97.24884%);fill-opacity:1;" d="M 282.550781 475.121094 C 282.550781 492.34375 268.589844 506.304688 251.371094 506.304688 C 234.148438 506.304688 220.1875 492.34375 220.1875 475.121094 C 220.1875 457.898438 234.148438 443.941406 251.371094 443.941406 C 268.589844 443.941406 282.550781 457.898438 282.550781 475.121094 "/>
<path style=" stroke:none;fill-rule:nonzero;fill:rgb(91.758728%,90.589905%,97.24884%);fill-opacity:1;" d="M 295.765625 80.332031 C 327.582031 80.332031 353.371094 54.542969 353.371094 22.726562 C 353.371094 14.652344 351.703125 6.972656 348.710938 0 L 242.820312 0 C 239.824219 6.972656 238.15625 14.652344 238.15625 22.726562 C 238.15625 54.542969 263.945312 80.332031 295.765625 80.332031 "/>
<path style=" stroke:none;fill-rule:nonzero;fill:rgb(91.758728%,90.589905%,97.24884%);fill-opacity:1;" d="M 820.566406 35.9375 C 820.566406 44.695312 813.46875 51.792969 804.710938 51.792969 C 795.953125 51.792969 788.855469 44.695312 788.855469 35.9375 C 788.855469 27.179688 795.953125 20.082031 804.710938 20.082031 C 813.46875 20.082031 820.566406 27.179688 820.566406 35.9375 "/>
<g clip-path="url(#clip7)" clip-rule="nonzero">
<path style=" stroke:none;fill-rule:nonzero;fill:rgb(91.758728%,90.589905%,97.24884%);fill-opacity:1;" d="M 846.988281 497.847656 C 833.5625 497.847656 822.679688 508.730469 822.679688 522.15625 C 822.679688 524.351562 822.976562 526.476562 823.519531 528.5 L 870.457031 528.5 C 871.003906 526.476562 871.300781 524.351562 871.300781 522.15625 C 871.300781 508.730469 860.417969 497.847656 846.988281 497.847656 "/>
</g>
<path style=" stroke:none;fill-rule:nonzero;fill:rgb(91.758728%,90.589905%,97.24884%);fill-opacity:1;" d="M 100.746094 330.839844 C 100.746094 337.261719 95.539062 342.46875 89.121094 342.46875 C 82.699219 342.46875 77.492188 337.261719 77.492188 330.839844 C 77.492188 324.421875 82.699219 319.214844 89.121094 319.214844 C 95.539062 319.214844 100.746094 324.421875 100.746094 330.839844 "/>
</g>
</svg>
