<?xml version="1.0" encoding="UTF-8"?>
<svg xmlns="http://www.w3.org/2000/svg" xmlns:xlink="http://www.w3.org/1999/xlink" width="104.88pt" height="82.499998pt" viewBox="0 0 104.88 82.499998" version="1.2">
<defs>
<clipPath id="clip1">
  <path d="M 0.257812 0 L 99.40625 0 L 99.40625 82 L 0.257812 82 Z M 0.257812 0 "/>
</clipPath>
</defs>
<g id="surface1">
<g clip-path="url(#clip1)" clip-rule="nonzero">
<path style=" stroke:none;fill-rule:nonzero;fill:rgb(0%,0%,0%);fill-opacity:1;" d="M 80.0625 62.003906 L 80.347656 66.414062 L 75.9375 66.894531 L 75.453125 71.285156 L 71.027344 71 L 69.789062 75.242188 L 65.480469 74.199219 L 63.515625 78.160156 L 59.457031 76.378906 L 56.832031 79.9375 L 53.144531 77.480469 L 49.9375 80.53125 L 46.726562 77.480469 L 43.039062 79.9375 L 40.414062 76.378906 L 36.355469 78.15625 L 34.390625 74.199219 L 30.082031 75.242188 L 28.84375 71 L 24.417969 71.285156 L 23.933594 66.894531 L 19.523438 66.410156 L 19.808594 62.003906 L 15.550781 60.769531 L 16.597656 56.480469 L 12.621094 54.523438 L 14.40625 50.484375 L 10.832031 47.867188 L 13.300781 44.195312 L 10.238281 41 L 13.300781 37.808594 L 10.832031 34.136719 L 14.40625 31.519531 L 12.621094 27.476562 L 16.597656 25.523438 L 15.550781 21.234375 L 19.808594 20 L 19.523438 15.589844 L 23.933594 15.109375 L 24.417969 10.71875 L 28.84375 11 L 30.082031 6.761719 L 34.394531 7.804688 L 36.355469 3.84375 L 40.414062 5.621094 L 43.042969 2.066406 L 46.726562 4.523438 L 49.9375 1.46875 L 53.144531 4.523438 L 56.832031 2.066406 L 59.457031 5.621094 L 63.515625 3.84375 L 65.480469 7.804688 L 69.789062 6.761719 L 71.027344 11.003906 L 75.453125 10.71875 L 75.9375 15.109375 L 80.347656 15.589844 L 80.0625 20 L 84.320312 21.234375 L 83.273438 25.523438 L 87.25 27.476562 L 85.464844 31.519531 L 89.039062 34.136719 L 86.570312 37.808594 L 89.636719 41 L 86.570312 44.195312 L 89.039062 47.867188 L 85.464844 50.484375 L 87.25 54.527344 L 83.273438 56.480469 L 84.320312 60.769531 Z M 1.554688 57.710938 L 5.613281 41.097656 C 5.632812 41.007812 5.632812 40.921875 5.609375 40.832031 L 1.570312 25.785156 L 12.808594 25.785156 L 11.355469 26.5 C 11.101562 26.625 10.988281 26.929688 11.101562 27.1875 L 12.785156 30.992188 L 9.421875 33.457031 C 9.191406 33.621094 9.136719 33.941406 9.292969 34.175781 L 11.617188 37.628906 L 8.734375 40.636719 C 8.539062 40.839844 8.539062 41.164062 8.734375 41.367188 L 11.617188 44.371094 L 9.292969 47.824219 C 9.136719 48.0625 9.191406 48.378906 9.421875 48.546875 L 12.785156 51.007812 L 11.101562 54.8125 C 10.988281 55.074219 11.101562 55.378906 11.355469 55.503906 L 15.097656 57.339844 L 15.007812 57.710938 Z M 84.863281 57.710938 L 84.769531 57.339844 L 88.515625 55.503906 C 88.769531 55.378906 88.882812 55.074219 88.765625 54.8125 L 87.085938 51.007812 L 90.449219 48.546875 C 90.679688 48.378906 90.734375 48.0625 90.578125 47.824219 L 88.253906 44.371094 L 91.136719 41.367188 C 91.335938 41.164062 91.335938 40.839844 91.136719 40.636719 L 88.253906 37.628906 L 90.578125 34.175781 C 90.734375 33.941406 90.679688 33.625 90.449219 33.457031 L 87.085938 30.992188 L 88.769531 27.1875 C 88.882812 26.929688 88.769531 26.625 88.515625 26.5 L 87.0625 25.785156 L 98.269531 25.785156 L 93.503906 40.8125 C 93.472656 40.910156 93.46875 41.015625 93.5 41.117188 L 98.289062 57.710938 Z M 99.507812 58.09375 L 94.566406 40.976562 L 99.503906 25.414062 C 99.554688 25.253906 99.523438 25.078125 99.425781 24.941406 C 99.324219 24.804688 99.164062 24.726562 98.996094 24.726562 L 84.777344 24.726562 C 84.695312 24.726562 84.621094 24.75 84.550781 24.78125 L 85.597656 20.5 L 81.179688 19.21875 L 81.476562 14.648438 L 76.902344 14.148438 L 76.402344 9.59375 L 71.8125 9.890625 L 70.527344 5.492188 L 66.058594 6.574219 L 64.023438 2.464844 L 59.808594 4.308594 L 57.085938 0.621094 L 53.261719 3.167969 L 49.9375 0.00390625 L 46.609375 3.167969 L 42.789062 0.621094 L 40.0625 4.308594 L 35.847656 2.464844 L 33.816406 6.574219 L 29.34375 5.492188 L 28.0625 9.890625 L 23.46875 9.59375 L 22.96875 14.148438 L 18.394531 14.648438 L 18.691406 19.21875 L 14.273438 20.496094 L 15.324219 24.785156 C 15.253906 24.75 15.175781 24.726562 15.09375 24.726562 L 0.875 24.726562 C 0.710938 24.726562 0.554688 24.800781 0.453125 24.933594 C 0.355469 25.0625 0.320312 25.234375 0.363281 25.390625 L 4.546875 40.976562 L 0.359375 58.117188 C 0.320312 58.273438 0.355469 58.441406 0.457031 58.570312 C 0.558594 58.695312 0.714844 58.773438 0.875 58.773438 L 14.941406 58.773438 L 14.273438 61.503906 L 18.691406 62.785156 L 18.394531 67.355469 L 22.96875 67.855469 L 23.46875 72.410156 L 28.058594 72.113281 L 29.34375 76.511719 L 33.816406 75.429688 L 35.847656 79.535156 L 40.0625 77.691406 L 42.785156 81.382812 L 46.609375 78.835938 L 49.9375 82 L 53.261719 78.835938 L 57.085938 81.382812 L 59.808594 77.691406 L 64.019531 79.539062 L 66.054688 75.429688 L 70.527344 76.511719 L 71.8125 72.113281 L 76.402344 72.410156 L 76.902344 67.855469 L 81.476562 67.355469 L 81.179688 62.785156 L 85.597656 61.503906 L 84.929688 58.773438 L 98.996094 58.773438 C 99.164062 58.773438 99.320312 58.695312 99.421875 58.5625 C 99.519531 58.425781 99.554688 58.253906 99.507812 58.09375 "/>
</g>
<path style=" stroke:none;fill-rule:nonzero;fill:rgb(0%,0%,0%);fill-opacity:1;" d="M 49.585938 11.109375 C 47.152344 11.136719 44.789062 11.449219 42.527344 12.023438 L 41.714844 8.996094 C 44.234375 8.355469 46.871094 8.003906 49.585938 7.972656 Z M 58.15625 8.996094 L 57.34375 12.023438 C 55.082031 11.449219 52.71875 11.136719 50.285156 11.109375 L 50.285156 7.972656 C 53 8.003906 55.636719 8.355469 58.15625 8.996094 Z M 79.953125 40.554688 C 79.917969 38.125 79.597656 35.761719 79.007812 33.507812 L 82.046875 32.695312 C 82.703125 35.210938 83.066406 37.84375 83.101562 40.554688 Z M 79.054688 48.308594 C 79.628906 46.046875 79.9375 43.683594 79.957031 41.25 L 83.105469 41.25 C 83.085938 43.964844 82.734375 46.597656 82.09375 49.121094 Z M 76.148438 55.566406 C 77.304688 53.511719 78.222656 51.304688 78.871094 48.984375 L 81.914062 49.796875 C 81.195312 52.382812 80.167969 54.84375 78.871094 57.136719 Z M 71.449219 61.832031 C 73.113281 60.128906 74.574219 58.230469 75.796875 56.171875 L 78.523438 57.738281 C 77.164062 60.035156 75.53125 62.152344 73.675781 64.046875 Z M 65.289062 66.6875 C 67.351562 65.457031 69.253906 63.992188 70.957031 62.328125 L 73.179688 64.542969 C 71.285156 66.402344 69.164062 68.035156 66.863281 69.398438 Z M 58.070312 69.777344 C 60.402344 69.125 62.617188 68.199219 64.683594 67.035156 L 66.257812 69.75 C 63.957031 71.050781 61.484375 72.085938 58.886719 72.8125 Z M 50.285156 70.894531 C 52.738281 70.867188 55.117188 70.550781 57.394531 69.96875 L 58.207031 72.992188 C 55.671875 73.644531 53.015625 74 50.285156 74.03125 Z M 42.476562 69.96875 C 44.753906 70.550781 47.136719 70.867188 49.585938 70.894531 L 49.585938 74.03125 C 46.855469 74 44.199219 73.644531 41.664062 72.992188 Z M 35.191406 67.035156 C 37.253906 68.199219 39.472656 69.125 41.800781 69.777344 L 40.984375 72.8125 C 38.386719 72.085938 35.914062 71.050781 33.613281 69.75 Z M 28.914062 62.328125 C 30.617188 63.992188 32.519531 65.457031 34.582031 66.6875 L 33.007812 69.398438 C 30.710938 68.035156 28.589844 66.402344 26.691406 64.542969 Z M 24.074219 56.171875 C 25.296875 58.230469 26.757812 60.128906 28.421875 61.832031 L 26.195312 64.046875 C 24.339844 62.152344 22.707031 60.035156 21.347656 57.738281 Z M 21 48.984375 C 21.648438 51.304688 22.566406 53.511719 23.722656 55.566406 L 21 57.136719 C 19.703125 54.84375 18.675781 52.382812 17.957031 49.796875 Z M 19.914062 41.25 C 19.933594 43.683594 20.246094 46.046875 20.816406 48.308594 L 17.777344 49.121094 C 17.136719 46.597656 16.789062 43.964844 16.765625 41.25 Z M 20.863281 33.507812 C 20.277344 35.761719 19.953125 38.125 19.917969 40.554688 L 16.769531 40.554688 C 16.804688 37.84375 17.167969 35.210938 17.824219 32.695312 Z M 23.8125 26.285156 C 22.644531 28.332031 21.714844 30.527344 21.054688 32.832031 L 18.007812 32.019531 C 18.742188 29.445312 19.78125 26.996094 21.082031 24.71875 Z M 28.519531 20.070312 C 26.855469 21.757812 25.390625 23.640625 24.160156 25.679688 L 21.4375 24.113281 C 22.804688 21.835938 24.4375 19.734375 26.296875 17.855469 Z M 34.667969 15.265625 C 32.613281 16.480469 30.71875 17.929688 29.015625 19.578125 L 26.792969 17.363281 C 28.6875 15.519531 30.800781 13.90625 33.09375 12.554688 Z M 35.277344 14.917969 L 33.703125 12.203125 C 35.992188 10.917969 38.449219 9.894531 41.035156 9.179688 L 41.851562 12.210938 C 39.535156 12.855469 37.332031 13.769531 35.277344 14.917969 Z M 64.59375 14.917969 C 62.539062 13.769531 60.335938 12.855469 58.019531 12.210938 L 58.835938 9.179688 C 61.421875 9.894531 63.878906 10.917969 66.167969 12.203125 Z M 70.855469 19.578125 C 69.152344 17.929688 67.257812 16.480469 65.203125 15.265625 L 66.777344 12.554688 C 69.070312 13.90625 71.183594 15.519531 73.078125 17.363281 Z M 75.710938 25.679688 C 74.484375 23.640625 73.015625 21.757812 71.351562 20.070312 L 73.578125 17.855469 C 75.433594 19.734375 77.066406 21.835938 78.433594 24.113281 Z M 76.0625 26.285156 L 78.789062 24.71875 C 80.09375 26.996094 81.132812 29.445312 81.863281 32.019531 L 78.816406 32.832031 C 78.15625 30.527344 77.226562 28.332031 76.0625 26.285156 Z M 49.9375 12.96875 C 65.460938 12.96875 78.085938 25.542969 78.085938 41 C 78.085938 56.460938 65.460938 69.035156 49.9375 69.035156 C 34.414062 69.035156 21.785156 56.460938 21.785156 41 C 21.785156 25.542969 34.414062 12.96875 49.9375 12.96875 Z M 50.285156 6.558594 L 50.285156 6.554688 L 49.585938 6.554688 L 49.585938 6.558594 C 30.671875 6.75 15.34375 22.125 15.34375 41 C 15.34375 59.996094 30.859375 75.445312 49.9375 75.445312 C 69.007812 75.445312 84.527344 59.996094 84.527344 41 C 84.527344 22.125 69.199219 6.75 50.285156 6.558594 "/>
<path style=" stroke:none;fill-rule:nonzero;fill:rgb(0%,0%,0%);fill-opacity:1;" d="M 69.667969 25.785156 C 73.097656 30.183594 74.910156 35.4375 74.910156 41 C 74.910156 47.195312 72.601562 53.117188 68.410156 57.710938 L 31.460938 57.710938 C 27.265625 53.117188 24.960938 47.195312 24.960938 41 C 24.960938 35.4375 26.773438 30.183594 30.203125 25.785156 Z M 29.527344 24.925781 C 25.84375 29.554688 23.894531 35.113281 23.894531 41 C 23.894531 47.539062 26.359375 53.789062 30.835938 58.601562 L 30.996094 58.773438 L 68.875 58.773438 L 69.035156 58.601562 C 73.507812 53.789062 75.972656 47.539062 75.972656 41 C 75.972656 35.113281 74.027344 29.550781 70.34375 24.925781 L 70.183594 24.726562 L 29.6875 24.726562 L 29.527344 24.925781 "/>
<path style=" stroke:none;fill-rule:nonzero;fill:rgb(0%,0%,0%);fill-opacity:1;" d="M 48.304688 22.609375 L 50.332031 21.144531 L 52.355469 22.609375 L 51.582031 20.242188 L 53.609375 18.773438 L 51.105469 18.773438 L 50.332031 16.40625 L 49.558594 18.773438 L 47.054688 18.773438 L 49.078125 20.242188 L 48.304688 22.609375 "/>
<path style=" stroke:none;fill-rule:nonzero;fill:rgb(0%,0%,0%);fill-opacity:1;" d="M 41.332031 22.097656 L 42.585938 21.1875 L 43.84375 22.097656 L 43.363281 20.625 L 44.621094 19.71875 L 43.066406 19.71875 L 42.585938 18.246094 L 42.105469 19.71875 L 40.554688 19.71875 L 41.808594 20.625 L 41.332031 22.097656 "/>
<path style=" stroke:none;fill-rule:nonzero;fill:rgb(0%,0%,0%);fill-opacity:1;" d="M 56.027344 22.097656 L 57.285156 21.1875 L 58.542969 22.097656 L 58.0625 20.625 L 59.316406 19.71875 L 57.765625 19.71875 L 57.285156 18.246094 L 56.804688 19.71875 L 55.25 19.71875 L 56.507812 20.625 L 56.027344 22.097656 "/>
<path style=" stroke:none;fill-rule:nonzero;fill:rgb(0%,0%,0%);fill-opacity:1;" d="M 52.355469 59.757812 L 50.332031 61.222656 L 48.304688 59.757812 L 49.078125 62.128906 L 47.054688 63.59375 L 49.558594 63.59375 L 50.332031 65.964844 L 51.105469 63.59375 L 53.609375 63.59375 L 51.582031 62.128906 L 52.355469 59.757812 "/>
<path style=" stroke:none;fill-rule:nonzero;fill:rgb(0%,0%,0%);fill-opacity:1;" d="M 43.84375 60.273438 L 42.585938 61.183594 L 41.332031 60.273438 L 41.808594 61.742188 L 40.554688 62.652344 L 42.105469 62.652344 L 42.585938 64.121094 L 43.066406 62.652344 L 44.621094 62.652344 L 43.363281 61.742188 L 43.84375 60.273438 "/>
<path style=" stroke:none;fill-rule:nonzero;fill:rgb(0%,0%,0%);fill-opacity:1;" d="M 58.542969 60.273438 L 57.285156 61.183594 L 56.027344 60.273438 L 56.507812 61.742188 L 55.25 62.652344 L 56.804688 62.652344 L 57.285156 64.121094 L 57.765625 62.652344 L 59.316406 62.652344 L 58.0625 61.742188 L 58.542969 60.273438 "/>
<path style=" stroke:none;fill-rule:nonzero;fill:rgb(6.269836%,5.879211%,5.099487%);fill-opacity:1;" d="M 37.949219 36.234375 L 37.949219 33.875 L 38.832031 33.875 C 39.652344 33.875 40.105469 34.277344 40.105469 35.0625 C 40.105469 35.832031 39.652344 36.234375 38.785156 36.234375 Z M 37.949219 29.570312 L 38.738281 29.570312 C 39.453125 29.570312 39.761719 29.9375 39.761719 30.664062 C 39.761719 31.421875 39.4375 31.824219 38.816406 31.824219 L 37.949219 31.824219 Z M 42.363281 35.078125 C 42.363281 34.105469 41.882812 33.242188 41.078125 32.777344 C 41.652344 32.253906 41.992188 31.390625 41.992188 30.570312 C 41.992188 28.738281 40.800781 27.5 39.125 27.5 L 35.75 27.5 L 35.75 38.300781 L 39.175781 38.300781 C 41.035156 38.300781 42.363281 37.007812 42.363281 35.078125 "/>
<path style=" stroke:none;fill-rule:nonzero;fill:rgb(6.269836%,5.879211%,5.099487%);fill-opacity:1;" d="M 49.417969 36.21875 L 45.867188 36.21875 L 45.867188 33.828125 L 48.953125 33.828125 L 48.953125 31.824219 L 45.867188 31.824219 L 45.867188 29.585938 L 49.261719 29.585938 L 49.261719 27.5 L 43.667969 27.5 L 43.667969 38.300781 L 49.417969 38.300781 L 49.417969 36.21875 "/>
<path style=" stroke:none;fill-rule:nonzero;fill:rgb(6.269836%,5.879211%,5.099487%);fill-opacity:1;" d="M 53.648438 36.390625 C 52.949219 36.390625 52.515625 36.019531 52.515625 35.15625 L 50.253906 35.15625 C 50.253906 37.332031 51.554688 38.519531 53.617188 38.519531 C 55.769531 38.519531 57.027344 37.222656 57.027344 35.449219 C 57.027344 32.007812 52.71875 31.898438 52.71875 30.203125 C 52.71875 29.707031 53.058594 29.398438 53.632812 29.398438 C 54.265625 29.398438 54.59375 29.753906 54.59375 30.464844 L 56.855469 30.464844 C 56.855469 28.472656 55.644531 27.285156 53.648438 27.285156 C 51.648438 27.285156 50.488281 28.488281 50.488281 30.140625 C 50.488281 33.425781 54.730469 33.640625 54.730469 35.433594 C 54.730469 35.972656 54.375 36.390625 53.648438 36.390625 "/>
<path style=" stroke:none;fill-rule:nonzero;fill:rgb(6.269836%,5.879211%,5.099487%);fill-opacity:1;" d="M 59.738281 38.300781 L 62 38.300781 L 62 29.585938 L 64.121094 29.585938 L 64.121094 27.5 L 57.613281 27.5 L 57.613281 29.585938 L 59.738281 29.585938 L 59.738281 38.300781 "/>
<path style=" stroke:none;fill-rule:nonzero;fill:rgb(6.269836%,5.879211%,5.099487%);fill-opacity:1;" d="M 35.253906 41.859375 L 36.167969 41.859375 C 37.050781 41.859375 37.515625 42.402344 37.515625 43.449219 C 37.515625 44.484375 37.050781 45.023438 36.167969 45.023438 L 35.253906 45.023438 Z M 35.253906 47.105469 L 36.199219 47.105469 C 38.445312 47.105469 39.777344 45.75 39.777344 43.449219 C 39.777344 41.136719 38.445312 39.777344 36.199219 39.777344 L 33.054688 39.777344 L 33.054688 50.578125 L 35.253906 50.578125 L 35.253906 47.105469 "/>
<path style=" stroke:none;fill-rule:nonzero;fill:rgb(6.269836%,5.879211%,5.099487%);fill-opacity:1;" d="M 44.101562 44.871094 L 43.1875 44.871094 L 43.1875 41.859375 L 44.101562 41.859375 C 44.875 41.859375 45.292969 42.386719 45.292969 43.371094 C 45.292969 44.34375 44.875 44.871094 44.101562 44.871094 Z M 46.054688 46.488281 C 47.015625 45.917969 47.558594 44.839844 47.558594 43.371094 C 47.558594 41.105469 46.285156 39.777344 44.132812 39.777344 L 40.988281 39.777344 L 40.988281 50.578125 L 43.1875 50.578125 L 43.1875 46.953125 L 43.960938 46.953125 L 45.699219 50.578125 L 48.097656 50.578125 L 46.054688 46.488281 "/>
<path style=" stroke:none;fill-rule:nonzero;fill:rgb(6.269836%,5.879211%,5.099487%);fill-opacity:1;" d="M 51.339844 39.777344 L 49.136719 39.777344 L 49.136719 50.578125 L 51.339844 50.578125 L 51.339844 39.777344 "/>
<path style=" stroke:none;fill-rule:nonzero;fill:rgb(6.269836%,5.879211%,5.099487%);fill-opacity:1;" d="M 56.296875 41.691406 C 57.132812 41.691406 57.503906 42.09375 57.566406 43.078125 L 59.769531 43.078125 C 59.691406 40.796875 58.480469 39.5625 56.3125 39.5625 C 54.191406 39.5625 52.949219 40.796875 52.949219 43.078125 L 52.949219 47.277344 C 52.949219 49.542969 54.191406 50.761719 56.296875 50.761719 C 58.496094 50.761719 59.753906 49.542969 59.800781 47.277344 L 57.597656 47.277344 C 57.535156 48.234375 57.148438 48.632812 56.296875 48.632812 C 55.617188 48.632812 55.242188 48.203125 55.242188 47.277344 L 55.242188 43.078125 C 55.242188 42.121094 55.632812 41.691406 56.296875 41.691406 "/>
<path style=" stroke:none;fill-rule:nonzero;fill:rgb(6.269836%,5.879211%,5.099487%);fill-opacity:1;" d="M 66.664062 41.859375 L 66.664062 39.777344 L 61.070312 39.777344 L 61.070312 50.578125 L 66.820312 50.578125 L 66.820312 48.496094 L 63.269531 48.496094 L 63.269531 46.105469 L 66.355469 46.105469 L 66.355469 44.097656 L 63.269531 44.097656 L 63.269531 41.859375 L 66.664062 41.859375 "/>
<path style=" stroke:none;fill-rule:nonzero;fill:rgb(6.269836%,5.879211%,5.099487%);fill-opacity:1;" d="M 37.675781 54.558594 L 38.460938 54.558594 L 38.460938 55.230469 C 38.460938 55.785156 38.15625 56.066406 37.6875 56.066406 C 37.234375 56.066406 36.929688 55.785156 36.929688 55.1875 L 36.929688 53.339844 C 36.929688 52.738281 37.203125 52.464844 37.664062 52.464844 C 38.117188 52.464844 38.390625 52.71875 38.417969 53.285156 L 38.933594 53.285156 C 38.902344 52.433594 38.425781 51.96875 37.664062 51.96875 C 36.890625 51.96875 36.40625 52.445312 36.40625 53.335938 L 36.40625 55.1875 C 36.40625 56.070312 36.921875 56.5625 37.6875 56.5625 C 38.457031 56.5625 38.960938 56.070312 38.96875 55.230469 L 38.96875 54.09375 L 37.675781 54.09375 L 37.675781 54.558594 "/>
<path style=" stroke:none;fill-rule:nonzero;fill:rgb(6.269836%,5.879211%,5.099487%);fill-opacity:1;" d="M 41.667969 55.140625 C 41.667969 55.757812 41.375 56.046875 40.929688 56.046875 C 40.488281 56.046875 40.195312 55.757812 40.195312 55.140625 L 40.195312 52.035156 L 39.65625 52.035156 L 39.65625 55.140625 C 39.65625 56.058594 40.167969 56.554688 40.929688 56.554688 C 41.6875 56.554688 42.199219 56.058594 42.199219 55.140625 L 42.199219 52.035156 L 41.667969 52.035156 L 41.667969 55.140625 "/>
<path style=" stroke:none;fill-rule:nonzero;fill:rgb(6.269836%,5.879211%,5.099487%);fill-opacity:1;" d="M 43.554688 55.039062 L 43.917969 53.53125 C 43.988281 53.246094 44.050781 52.871094 44.078125 52.699219 L 44.097656 52.699219 C 44.121094 52.871094 44.1875 53.246094 44.257812 53.53125 L 44.621094 55.039062 Z M 43.804688 52.035156 L 42.652344 56.492188 L 43.203125 56.492188 L 43.4375 55.523438 L 44.734375 55.523438 L 44.972656 56.492188 L 45.523438 56.492188 L 44.371094 52.035156 L 43.804688 52.035156 "/>
<path style=" stroke:none;fill-rule:nonzero;fill:rgb(6.269836%,5.879211%,5.099487%);fill-opacity:1;" d="M 46.570312 54.320312 L 46.570312 52.527344 L 47.136719 52.527344 C 47.648438 52.527344 47.917969 52.824219 47.917969 53.40625 C 47.917969 53.996094 47.648438 54.320312 47.132812 54.320312 Z M 48.449219 53.386719 C 48.449219 52.535156 47.980469 52.035156 47.136719 52.035156 L 46.042969 52.035156 L 46.042969 56.492188 L 46.570312 56.492188 L 46.570312 54.8125 L 47.023438 54.8125 L 48 56.492188 L 48.59375 56.492188 L 47.558594 54.761719 C 48.121094 54.601562 48.449219 54.117188 48.449219 53.386719 "/>
<path style=" stroke:none;fill-rule:nonzero;fill:rgb(6.269836%,5.879211%,5.099487%);fill-opacity:1;" d="M 49.691406 55.039062 L 50.058594 53.53125 C 50.128906 53.246094 50.191406 52.871094 50.21875 52.699219 L 50.238281 52.699219 C 50.261719 52.871094 50.324219 53.246094 50.394531 53.53125 L 50.761719 55.039062 Z M 49.941406 52.035156 L 48.792969 56.492188 L 49.339844 56.492188 L 49.578125 55.523438 L 50.875 55.523438 L 51.113281 56.492188 L 51.660156 56.492188 L 50.511719 52.035156 L 49.941406 52.035156 "/>
<path style=" stroke:none;fill-rule:nonzero;fill:rgb(6.269836%,5.879211%,5.099487%);fill-opacity:1;" d="M 54.230469 54.097656 C 54.230469 54.488281 54.265625 55.109375 54.300781 55.5 L 54.28125 55.503906 C 54.179688 55.246094 53.980469 54.773438 53.832031 54.46875 L 52.714844 52.035156 L 52.183594 52.035156 L 52.183594 56.492188 L 52.707031 56.492188 L 52.707031 54.390625 C 52.707031 54.011719 52.683594 53.417969 52.65625 53.023438 L 52.675781 53.015625 C 52.773438 53.273438 52.976562 53.78125 53.117188 54.097656 L 54.214844 56.492188 L 54.746094 56.492188 L 54.746094 52.035156 L 54.230469 52.035156 L 54.230469 54.097656 "/>
<path style=" stroke:none;fill-rule:nonzero;fill:rgb(6.269836%,5.879211%,5.099487%);fill-opacity:1;" d="M 55.328125 52.527344 L 56.285156 52.527344 L 56.285156 56.492188 L 56.816406 56.492188 L 56.816406 52.527344 L 57.777344 52.527344 L 57.777344 52.035156 L 55.328125 52.035156 L 55.328125 52.527344 "/>
<path style=" stroke:none;fill-rule:nonzero;fill:rgb(6.269836%,5.879211%,5.099487%);fill-opacity:1;" d="M 58.855469 54.46875 L 60.355469 54.46875 L 60.355469 53.992188 L 58.855469 53.992188 L 58.855469 52.519531 L 60.46875 52.519531 L 60.46875 52.035156 L 58.332031 52.035156 L 58.332031 56.492188 L 60.539062 56.492188 L 60.539062 56 L 58.855469 56 L 58.855469 54.46875 "/>
<path style=" stroke:none;fill-rule:nonzero;fill:rgb(6.269836%,5.879211%,5.099487%);fill-opacity:1;" d="M 61.78125 54.46875 L 63.28125 54.46875 L 63.28125 53.992188 L 61.78125 53.992188 L 61.78125 52.519531 L 63.398438 52.519531 L 63.398438 52.035156 L 61.253906 52.035156 L 61.253906 56.492188 L 63.46875 56.492188 L 63.46875 56 L 61.78125 56 L 61.78125 54.46875 "/>
<path style=" stroke:none;fill-rule:nonzero;fill:rgb(6.269836%,5.879211%,5.099487%);fill-opacity:1;" d="M 66.667969 53.957031 L 66.246094 52.660156 L 65.820312 53.957031 L 64.449219 53.957031 L 65.558594 54.757812 L 65.136719 56.058594 L 66.246094 55.253906 L 67.355469 56.058594 L 66.929688 54.757812 L 68.039062 53.957031 L 66.667969 53.957031 "/>
<path style=" stroke:none;fill-rule:nonzero;fill:rgb(6.269836%,5.879211%,5.099487%);fill-opacity:1;" d="M 32.519531 56.058594 L 33.625 55.253906 L 34.734375 56.058594 L 34.3125 54.757812 L 35.421875 53.957031 L 34.050781 53.957031 L 33.625 52.660156 L 33.203125 53.957031 L 31.832031 53.957031 L 32.941406 54.757812 L 32.519531 56.058594 "/>
</g>
</svg>
