<?xml version="1.0" encoding="UTF-8"?>
<svg xmlns="http://www.w3.org/2000/svg" xmlns:xlink="http://www.w3.org/1999/xlink" width="75pt" height="74.999997pt" viewBox="0 0 75 74.999997" version="1.2">
<defs>
<clipPath id="clip1">
  <path d="M 0.0625 50 L 74.9375 50 L 74.9375 70.351562 L 0.0625 70.351562 Z M 0.0625 50 "/>
</clipPath>
<clipPath id="clip2">
  <path d="M 27 11.851562 L 53 11.851562 L 53 56 L 27 56 Z M 27 11.851562 "/>
</clipPath>
</defs>
<g id="surface1">
<g clip-path="url(#clip1)" clip-rule="nonzero">
<path style=" stroke:none;fill-rule:nonzero;fill:rgb(99.609375%,93.328857%,86.669922%);fill-opacity:1;" d="M 74.9375 70.351562 L 0.0625 70.351562 L 74.9375 70.351562 L 74.9375 50.011719 L 74.9375 70.351562 "/>
<path style=" stroke:none;fill-rule:nonzero;fill:rgb(99.21875%,87.059021%,75.289917%);fill-opacity:1;" d="M 74.9375 70.351562 L 0.0625 70.351562 L 0.0625 50.011719 L 74.9375 50.011719 L 74.9375 70.351562 M 38.347656 53.476562 C 21.320312 53.476562 7.515625 54.390625 7.515625 55.515625 C 7.515625 56.640625 21.320312 57.550781 38.347656 57.550781 C 55.375 57.550781 69.179688 56.640625 69.179688 55.515625 C 69.179688 54.390625 55.375 53.476562 38.347656 53.476562 "/>
</g>
<path style=" stroke:none;fill-rule:nonzero;fill:rgb(62.348938%,54.508972%,46.669006%);fill-opacity:1;" d="M 38.347656 57.550781 C 21.320312 57.550781 7.515625 56.640625 7.515625 55.515625 C 7.515625 54.390625 21.320312 53.476562 38.347656 53.476562 C 55.375 53.476562 69.179688 54.390625 69.179688 55.515625 C 69.179688 56.640625 55.375 57.550781 38.347656 57.550781 "/>
<path style=" stroke:none;fill-rule:nonzero;fill:rgb(36.859131%,14.509583%,56.469727%);fill-opacity:1;" d="M 37.046875 29.621094 C 36.929688 30.109375 36.789062 30.585938 36.621094 31.050781 C 36.566406 31.195312 36.640625 31.359375 36.789062 31.410156 C 36.933594 31.464844 37.09375 31.390625 37.148438 31.242188 C 37.324219 30.757812 37.472656 30.261719 37.59375 29.75 C 37.628906 29.601562 37.535156 29.449219 37.382812 29.414062 C 37.234375 29.378906 37.082031 29.472656 37.046875 29.621094 Z M 36.027344 32.417969 C 35.804688 32.863281 35.554688 33.296875 35.28125 33.710938 C 35.195312 33.839844 35.234375 34.015625 35.363281 34.097656 C 35.492188 34.183594 35.667969 34.148438 35.75 34.019531 C 36.035156 33.585938 36.296875 33.136719 36.53125 32.671875 C 36.601562 32.535156 36.542969 32.363281 36.40625 32.292969 C 36.269531 32.222656 36.097656 32.28125 36.027344 32.417969 Z M 34.390625 34.90625 C 34.070312 35.285156 33.730469 35.648438 33.367188 35.988281 C 33.253906 36.097656 33.25 36.273438 33.355469 36.386719 C 33.464844 36.5 33.640625 36.503906 33.753906 36.398438 C 34.132812 36.042969 34.488281 35.664062 34.820312 35.265625 C 34.921875 35.148438 34.90625 34.96875 34.789062 34.871094 C 34.667969 34.769531 34.492188 34.785156 34.390625 34.90625 Z M 32.226562 36.949219 C 31.828125 37.246094 31.414062 37.519531 30.984375 37.769531 C 30.847656 37.847656 30.804688 38.019531 30.878906 38.152344 C 30.957031 38.285156 31.128906 38.332031 31.265625 38.253906 C 31.714844 37.996094 32.148438 37.707031 32.5625 37.398438 C 32.6875 37.304688 32.714844 37.128906 32.621094 37.003906 C 32.527344 36.882812 32.351562 36.855469 32.226562 36.949219 Z M 29.652344 38.4375 C 29.199219 38.636719 28.730469 38.804688 28.253906 38.949219 C 28.105469 38.992188 28.019531 39.148438 28.066406 39.296875 C 28.109375 39.449219 28.265625 39.53125 28.414062 39.488281 C 28.914062 39.335938 29.402344 39.160156 29.875 38.953125 C 30.019531 38.894531 30.085938 38.726562 30.023438 38.585938 C 29.960938 38.441406 29.796875 38.375 29.652344 38.4375 Z M 26.804688 39.292969 C 26.320312 39.378906 25.824219 39.433594 25.324219 39.464844 C 25.167969 39.472656 25.050781 39.605469 25.058594 39.761719 C 25.066406 39.914062 25.199219 40.035156 25.355469 40.023438 C 25.878906 39.996094 26.394531 39.933594 26.898438 39.84375 C 27.050781 39.820312 27.15625 39.671875 27.128906 39.519531 C 27.101562 39.367188 26.957031 39.265625 26.804688 39.292969 Z M 23.832031 39.464844 C 23.328125 39.4375 22.835938 39.378906 22.351562 39.292969 C 22.199219 39.269531 22.050781 39.371094 22.027344 39.523438 C 22 39.675781 22.101562 39.820312 22.253906 39.847656 C 22.761719 39.9375 23.277344 39.996094 23.800781 40.027344 C 23.953125 40.035156 24.085938 39.917969 24.097656 39.761719 C 24.105469 39.605469 23.988281 39.472656 23.832031 39.464844 Z M 20.902344 38.953125 C 20.421875 38.808594 19.953125 38.640625 19.5 38.445312 C 19.355469 38.382812 19.191406 38.449219 19.128906 38.589844 C 19.070312 38.734375 19.132812 38.898438 19.277344 38.960938 C 19.75 39.164062 20.238281 39.34375 20.738281 39.492188 C 20.886719 39.535156 21.046875 39.449219 21.089844 39.300781 C 21.132812 39.152344 21.050781 38.996094 20.902344 38.953125 Z M 18.167969 37.773438 C 17.734375 37.523438 17.320312 37.25 16.921875 36.953125 C 16.796875 36.863281 16.621094 36.886719 16.527344 37.011719 C 16.4375 37.136719 16.460938 37.3125 16.585938 37.40625 C 17.003906 37.714844 17.433594 38 17.886719 38.261719 C 18.019531 38.339844 18.191406 38.292969 18.269531 38.15625 C 18.347656 38.023438 18.300781 37.851562 18.167969 37.773438 Z M 15.78125 35.996094 C 15.417969 35.65625 15.074219 35.292969 14.757812 34.914062 C 14.65625 34.796875 14.480469 34.78125 14.359375 34.878906 C 14.242188 34.980469 14.226562 35.15625 14.324219 35.273438 C 14.660156 35.671875 15.015625 36.050781 15.394531 36.40625 C 15.507812 36.511719 15.683594 36.507812 15.792969 36.394531 C 15.898438 36.28125 15.890625 36.101562 15.78125 35.996094 Z M 13.863281 33.71875 C 13.589844 33.304688 13.339844 32.875 13.117188 32.429688 C 13.046875 32.292969 12.878906 32.234375 12.738281 32.304688 C 12.601562 32.375 12.546875 32.546875 12.617188 32.683594 C 12.851562 33.148438 13.109375 33.597656 13.394531 34.027344 C 13.480469 34.160156 13.65625 34.195312 13.785156 34.109375 C 13.914062 34.023438 13.949219 33.847656 13.863281 33.71875 Z M 12.523438 31.0625 C 12.355469 30.597656 12.210938 30.121094 12.097656 29.636719 C 12.0625 29.484375 11.910156 29.390625 11.757812 29.425781 C 11.609375 29.464844 11.515625 29.613281 11.550781 29.765625 C 11.671875 30.273438 11.820312 30.773438 11.996094 31.257812 C 12.050781 31.402344 12.210938 31.476562 12.355469 31.421875 C 12.503906 31.371094 12.578125 31.207031 12.523438 31.0625 Z M 11.839844 28.167969 C 11.78125 27.679688 11.75 27.183594 11.75 26.679688 C 11.75 26.523438 11.625 26.398438 11.46875 26.398438 C 11.316406 26.398438 11.1875 26.523438 11.1875 26.679688 C 11.191406 27.207031 11.21875 27.722656 11.28125 28.234375 C 11.296875 28.386719 11.4375 28.496094 11.589844 28.480469 C 11.746094 28.460938 11.855469 28.320312 11.839844 28.167969 Z M 11.835938 25.191406 C 11.890625 24.695312 11.976562 24.203125 12.089844 23.722656 C 12.125 23.574219 12.03125 23.421875 11.878906 23.386719 C 11.730469 23.351562 11.578125 23.445312 11.542969 23.59375 C 11.425781 24.097656 11.335938 24.609375 11.277344 25.128906 C 11.257812 25.28125 11.371094 25.421875 11.523438 25.4375 C 11.679688 25.457031 11.816406 25.347656 11.835938 25.191406 Z M 12.515625 22.292969 C 12.6875 21.824219 12.882812 21.367188 13.105469 20.925781 C 13.175781 20.785156 13.117188 20.617188 12.980469 20.546875 C 12.839844 20.480469 12.671875 20.535156 12.601562 20.671875 C 12.371094 21.136719 12.164062 21.613281 11.988281 22.101562 C 11.933594 22.25 12.011719 22.410156 12.15625 22.464844 C 12.300781 22.515625 12.460938 22.441406 12.515625 22.292969 Z M 13.851562 19.632812 C 14.125 19.21875 14.421875 18.816406 14.738281 18.4375 C 14.839844 18.320312 14.824219 18.140625 14.707031 18.042969 C 14.585938 17.941406 14.410156 17.957031 14.308594 18.078125 C 13.976562 18.472656 13.667969 18.890625 13.382812 19.324219 C 13.296875 19.457031 13.332031 19.628906 13.460938 19.714844 C 13.589844 19.800781 13.765625 19.765625 13.851562 19.632812 Z M 15.761719 17.351562 C 16.121094 17.011719 16.503906 16.691406 16.902344 16.394531 C 17.027344 16.300781 17.050781 16.125 16.957031 16 C 16.867188 15.875 16.691406 15.851562 16.566406 15.941406 C 16.148438 16.253906 15.753906 16.589844 15.375 16.945312 C 15.261719 17.050781 15.257812 17.230469 15.363281 17.339844 C 15.472656 17.453125 15.648438 17.460938 15.761719 17.351562 Z M 18.144531 15.570312 C 18.574219 15.324219 19.015625 15.097656 19.472656 14.898438 C 19.617188 14.839844 19.683594 14.671875 19.621094 14.53125 C 19.558594 14.386719 19.394531 14.320312 19.25 14.382812 C 18.773438 14.589844 18.308594 14.824219 17.863281 15.085938 C 17.726562 15.164062 17.683594 15.335938 17.761719 15.46875 C 17.839844 15.601562 18.011719 15.648438 18.144531 15.570312 Z M 20.875 14.386719 C 21.347656 14.246094 21.832031 14.128906 22.324219 14.042969 C 22.476562 14.015625 22.578125 13.871094 22.550781 13.71875 C 22.523438 13.566406 22.378906 13.464844 22.226562 13.488281 C 21.710938 13.582031 21.207031 13.703125 20.710938 13.851562 C 20.5625 13.894531 20.480469 14.050781 20.523438 14.199219 C 20.570312 14.347656 20.726562 14.433594 20.875 14.386719 Z M 23.804688 13.871094 C 24.058594 13.855469 24.3125 13.847656 24.570312 13.847656 C 24.8125 13.847656 25.054688 13.855469 25.296875 13.867188 C 25.449219 13.875 25.582031 13.757812 25.589844 13.601562 C 25.601562 13.449219 25.480469 13.316406 25.324219 13.304688 C 25.074219 13.292969 24.824219 13.285156 24.570312 13.285156 C 24.300781 13.285156 24.035156 13.292969 23.769531 13.308594 C 23.617188 13.316406 23.496094 13.449219 23.507812 13.605469 C 23.515625 13.761719 23.648438 13.878906 23.804688 13.871094 Z M 26.777344 14.035156 C 27.269531 14.121094 27.753906 14.234375 28.226562 14.375 C 28.375 14.421875 28.53125 14.335938 28.574219 14.1875 C 28.621094 14.039062 28.535156 13.882812 28.386719 13.835938 C 27.890625 13.691406 27.386719 13.570312 26.871094 13.480469 C 26.71875 13.457031 26.574219 13.558594 26.546875 13.710938 C 26.519531 13.863281 26.621094 14.011719 26.777344 14.035156 Z M 29.628906 14.882812 C 30.085938 15.082031 30.53125 15.304688 30.960938 15.550781 C 31.09375 15.628906 31.265625 15.582031 31.34375 15.449219 C 31.421875 15.3125 31.375 15.140625 31.242188 15.066406 C 30.792969 14.804688 30.328125 14.574219 29.851562 14.367188 C 29.707031 14.304688 29.542969 14.371094 29.480469 14.515625 C 29.417969 14.65625 29.484375 14.824219 29.628906 14.882812 Z M 32.207031 16.371094 C 32.605469 16.667969 32.988281 16.984375 33.351562 17.328125 C 33.464844 17.433594 33.640625 17.425781 33.746094 17.3125 C 33.855469 17.199219 33.847656 17.023438 33.734375 16.917969 C 33.359375 16.5625 32.960938 16.226562 32.542969 15.917969 C 32.417969 15.824219 32.242188 15.851562 32.148438 15.976562 C 32.058594 16.101562 32.082031 16.277344 32.207031 16.371094 Z M 34.375 18.410156 C 34.695312 18.789062 34.992188 19.1875 35.269531 19.601562 C 35.355469 19.730469 35.527344 19.765625 35.65625 19.679688 C 35.789062 19.59375 35.824219 19.421875 35.738281 19.292969 C 35.449219 18.859375 35.140625 18.441406 34.804688 18.046875 C 34.707031 17.929688 34.527344 17.914062 34.410156 18.011719 C 34.289062 18.113281 34.277344 18.289062 34.375 18.410156 Z M 36.015625 20.890625 C 36.238281 21.332031 36.4375 21.789062 36.609375 22.257812 C 36.664062 22.402344 36.824219 22.476562 36.972656 22.425781 C 37.117188 22.371094 37.191406 22.207031 37.136719 22.0625 C 36.957031 21.574219 36.75 21.097656 36.519531 20.636719 C 36.449219 20.5 36.277344 20.441406 36.140625 20.511719 C 36.003906 20.582031 35.945312 20.75 36.015625 20.890625 Z M 37.039062 23.683594 C 37.152344 24.164062 37.242188 24.652344 37.300781 25.152344 C 37.320312 25.304688 37.457031 25.414062 37.613281 25.398438 C 37.765625 25.378906 37.875 25.238281 37.859375 25.085938 C 37.796875 24.566406 37.707031 24.054688 37.585938 23.554688 C 37.550781 23.402344 37.398438 23.308594 37.25 23.34375 C 37.097656 23.382812 37.003906 23.53125 37.039062 23.683594 Z M 37.390625 26.640625 L 37.390625 26.667969 C 37.390625 27.167969 37.359375 27.664062 37.304688 28.152344 C 37.285156 28.308594 37.394531 28.449219 37.550781 28.464844 C 37.703125 28.484375 37.84375 28.371094 37.863281 28.21875 C 37.921875 27.710938 37.949219 27.191406 37.949219 26.667969 L 37.949219 26.636719 C 37.949219 26.484375 37.824219 26.355469 37.667969 26.359375 C 37.515625 26.359375 37.390625 26.484375 37.390625 26.640625 "/>
<path style=" stroke:none;fill-rule:nonzero;fill:rgb(36.859131%,14.509583%,56.469727%);fill-opacity:1;" d="M 62.214844 42.523438 C 62.097656 43.011719 61.957031 43.488281 61.785156 43.949219 C 61.734375 44.097656 61.808594 44.257812 61.953125 44.3125 C 62.101562 44.363281 62.261719 44.289062 62.3125 44.144531 C 62.492188 43.660156 62.640625 43.160156 62.757812 42.652344 C 62.796875 42.5 62.703125 42.347656 62.550781 42.3125 C 62.398438 42.277344 62.25 42.371094 62.214844 42.523438 Z M 61.195312 45.320312 C 60.972656 45.765625 60.722656 46.195312 60.449219 46.609375 C 60.363281 46.742188 60.398438 46.914062 60.527344 47 C 60.65625 47.085938 60.832031 47.050781 60.917969 46.917969 C 61.203125 46.488281 61.460938 46.039062 61.699219 45.570312 C 61.765625 45.433594 61.710938 45.265625 61.570312 45.195312 C 61.433594 45.125 61.265625 45.179688 61.195312 45.320312 Z M 59.558594 47.804688 C 59.238281 48.1875 58.894531 48.546875 58.535156 48.890625 C 58.421875 48.996094 58.417969 49.175781 58.523438 49.285156 C 58.628906 49.398438 58.808594 49.40625 58.921875 49.296875 C 59.296875 48.941406 59.65625 48.566406 59.988281 48.167969 C 60.085938 48.046875 60.070312 47.871094 59.953125 47.769531 C 59.835938 47.671875 59.65625 47.6875 59.558594 47.804688 Z M 57.394531 49.847656 C 56.996094 50.144531 56.582031 50.417969 56.148438 50.667969 C 56.015625 50.746094 55.96875 50.917969 56.046875 51.050781 C 56.125 51.1875 56.296875 51.234375 56.429688 51.15625 C 56.882812 50.894531 57.316406 50.609375 57.730469 50.300781 C 57.855469 50.207031 57.878906 50.03125 57.785156 49.90625 C 57.695312 49.78125 57.519531 49.757812 57.394531 49.847656 Z M 54.820312 51.339844 C 54.367188 51.535156 53.898438 51.707031 53.417969 51.847656 C 53.269531 51.894531 53.1875 52.050781 53.230469 52.199219 C 53.277344 52.347656 53.433594 52.433594 53.582031 52.386719 C 54.082031 52.238281 54.570312 52.058594 55.042969 51.855469 C 55.183594 51.792969 55.25 51.628906 55.1875 51.484375 C 55.125 51.34375 54.960938 51.277344 54.820312 51.339844 Z M 51.96875 52.191406 C 51.484375 52.277344 50.992188 52.335938 50.488281 52.363281 C 50.335938 52.375 50.214844 52.507812 50.226562 52.660156 C 50.234375 52.816406 50.367188 52.933594 50.519531 52.925781 C 51.042969 52.894531 51.5625 52.835938 52.066406 52.746094 C 52.21875 52.71875 52.320312 52.574219 52.292969 52.421875 C 52.269531 52.265625 52.121094 52.164062 51.96875 52.191406 Z M 49 52.363281 C 48.496094 52.335938 48.003906 52.277344 47.515625 52.195312 C 47.363281 52.167969 47.21875 52.269531 47.191406 52.421875 C 47.164062 52.578125 47.269531 52.722656 47.421875 52.75 C 47.925781 52.835938 48.441406 52.898438 48.964844 52.925781 C 49.121094 52.933594 49.253906 52.816406 49.261719 52.660156 C 49.269531 52.507812 49.152344 52.375 49 52.363281 Z M 46.066406 51.851562 C 45.585938 51.710938 45.121094 51.539062 44.664062 51.34375 C 44.523438 51.28125 44.359375 51.347656 44.296875 51.492188 C 44.234375 51.632812 44.300781 51.800781 44.441406 51.859375 C 44.917969 52.066406 45.40625 52.242188 45.90625 52.390625 C 46.054688 52.4375 46.210938 52.351562 46.253906 52.203125 C 46.300781 52.054688 46.214844 51.898438 46.066406 51.851562 Z M 43.332031 50.675781 C 42.902344 50.425781 42.484375 50.152344 42.085938 49.855469 C 41.964844 49.761719 41.789062 49.789062 41.695312 49.914062 C 41.601562 50.039062 41.628906 50.214844 41.753906 50.304688 C 42.167969 50.613281 42.601562 50.902344 43.050781 51.160156 C 43.1875 51.238281 43.359375 51.191406 43.4375 51.058594 C 43.515625 50.925781 43.46875 50.753906 43.332031 50.675781 Z M 40.945312 48.898438 C 40.585938 48.554688 40.242188 48.195312 39.921875 47.8125 C 39.820312 47.695312 39.644531 47.679688 39.527344 47.78125 C 39.40625 47.878906 39.394531 48.058594 39.492188 48.175781 C 39.824219 48.574219 40.183594 48.949219 40.5625 49.304688 C 40.671875 49.414062 40.851562 49.40625 40.957031 49.292969 C 41.0625 49.179688 41.058594 49.003906 40.945312 48.898438 Z M 39.03125 46.621094 C 38.757812 46.207031 38.507812 45.777344 38.28125 45.332031 C 38.214844 45.191406 38.042969 45.136719 37.90625 45.207031 C 37.765625 45.277344 37.710938 45.445312 37.78125 45.582031 C 38.015625 46.050781 38.277344 46.5 38.5625 46.929688 C 38.648438 47.058594 38.820312 47.09375 38.949219 47.007812 C 39.082031 46.925781 39.117188 46.75 39.03125 46.621094 Z M 37.691406 43.964844 C 37.523438 43.5 37.378906 43.023438 37.261719 42.535156 C 37.226562 42.386719 37.074219 42.292969 36.925781 42.328125 C 36.773438 42.363281 36.679688 42.515625 36.714844 42.664062 C 36.835938 43.175781 36.988281 43.671875 37.164062 44.15625 C 37.214844 44.300781 37.378906 44.378906 37.523438 44.324219 C 37.667969 44.269531 37.746094 44.109375 37.691406 43.964844 Z M 37.003906 41.070312 C 36.945312 40.582031 36.917969 40.085938 36.917969 39.582031 C 36.917969 39.425781 36.792969 39.300781 36.636719 39.300781 C 36.480469 39.300781 36.355469 39.425781 36.355469 39.582031 C 36.355469 40.105469 36.386719 40.625 36.445312 41.132812 C 36.464844 41.289062 36.605469 41.398438 36.757812 41.378906 C 36.914062 41.363281 37.023438 41.222656 37.003906 41.070312 Z M 37 38.09375 C 37.058594 37.59375 37.144531 37.105469 37.257812 36.625 C 37.292969 36.472656 37.199219 36.320312 37.046875 36.285156 C 36.894531 36.25 36.746094 36.34375 36.710938 36.496094 C 36.59375 36.996094 36.503906 37.507812 36.441406 38.027344 C 36.425781 38.183594 36.535156 38.320312 36.691406 38.339844 C 36.84375 38.355469 36.984375 38.246094 37 38.09375 Z M 37.683594 35.195312 C 37.851562 34.726562 38.050781 34.269531 38.269531 33.824219 C 38.339844 33.6875 38.285156 33.519531 38.144531 33.449219 C 38.007812 33.378906 37.839844 33.433594 37.769531 33.574219 C 37.539062 34.035156 37.332031 34.511719 37.152344 35.003906 C 37.101562 35.148438 37.175781 35.3125 37.320312 35.363281 C 37.46875 35.417969 37.628906 35.339844 37.683594 35.195312 Z M 39.015625 32.535156 C 39.289062 32.117188 39.585938 31.71875 39.90625 31.339844 C 40.003906 31.21875 39.992188 31.042969 39.871094 30.941406 C 39.753906 30.84375 39.574219 30.859375 39.476562 30.976562 C 39.144531 31.375 38.832031 31.792969 38.546875 32.226562 C 38.460938 32.355469 38.496094 32.53125 38.628906 32.613281 C 38.757812 32.699219 38.929688 32.664062 39.015625 32.535156 Z M 40.929688 30.253906 C 41.289062 29.910156 41.667969 29.589844 42.066406 29.292969 C 42.191406 29.199219 42.21875 29.023438 42.125 28.898438 C 42.03125 28.777344 41.855469 28.75 41.730469 28.84375 C 41.316406 29.152344 40.917969 29.488281 40.542969 29.84375 C 40.429688 29.953125 40.425781 30.128906 40.53125 30.242188 C 40.636719 30.355469 40.816406 30.359375 40.929688 30.253906 Z M 43.3125 28.472656 C 43.738281 28.222656 44.183594 28 44.640625 27.800781 C 44.78125 27.738281 44.847656 27.574219 44.785156 27.429688 C 44.726562 27.289062 44.558594 27.222656 44.417969 27.285156 C 43.941406 27.492188 43.476562 27.726562 43.027344 27.984375 C 42.894531 28.0625 42.847656 28.234375 42.925781 28.371094 C 43.003906 28.503906 43.175781 28.550781 43.3125 28.472656 Z M 46.039062 27.289062 C 46.511719 27.148438 46.996094 27.03125 47.488281 26.945312 C 47.640625 26.917969 47.746094 26.769531 47.71875 26.617188 C 47.691406 26.464844 47.542969 26.363281 47.390625 26.390625 C 46.875 26.480469 46.371094 26.601562 45.878906 26.75 C 45.730469 26.796875 45.644531 26.953125 45.691406 27.101562 C 45.734375 27.25 45.890625 27.332031 46.039062 27.289062 Z M 48.96875 26.769531 C 49.222656 26.753906 49.480469 26.746094 49.738281 26.746094 C 49.980469 26.746094 50.222656 26.753906 50.460938 26.769531 C 50.617188 26.777344 50.75 26.65625 50.757812 26.503906 C 50.765625 26.347656 50.648438 26.214844 50.492188 26.207031 C 50.242188 26.191406 49.988281 26.183594 49.738281 26.183594 C 49.46875 26.183594 49.203125 26.195312 48.9375 26.207031 C 48.78125 26.21875 48.664062 26.351562 48.671875 26.507812 C 48.683594 26.660156 48.816406 26.777344 48.96875 26.769531 Z M 51.941406 26.9375 C 52.4375 27.023438 52.917969 27.136719 53.390625 27.277344 C 53.542969 27.320312 53.699219 27.234375 53.742188 27.085938 C 53.785156 26.9375 53.703125 26.78125 53.554688 26.738281 C 53.058594 26.589844 52.554688 26.472656 52.039062 26.382812 C 51.882812 26.355469 51.738281 26.460938 51.714844 26.613281 C 51.6875 26.765625 51.789062 26.910156 51.941406 26.9375 Z M 54.792969 27.785156 C 55.253906 27.980469 55.699219 28.203125 56.128906 28.453125 C 56.261719 28.527344 56.433594 28.484375 56.511719 28.347656 C 56.589844 28.214844 56.542969 28.042969 56.40625 27.964844 C 55.960938 27.707031 55.496094 27.472656 55.015625 27.269531 C 54.875 27.207031 54.707031 27.273438 54.648438 27.414062 C 54.585938 27.558594 54.652344 27.722656 54.792969 27.785156 Z M 57.375 29.269531 C 57.773438 29.566406 58.15625 29.886719 58.515625 30.226562 C 58.628906 30.332031 58.808594 30.328125 58.914062 30.214844 C 59.019531 30.101562 59.015625 29.925781 58.902344 29.816406 C 58.523438 29.460938 58.125 29.128906 57.707031 28.820312 C 57.585938 28.726562 57.410156 28.753906 57.316406 28.878906 C 57.222656 29 57.25 29.175781 57.375 29.269531 Z M 59.542969 31.308594 C 59.863281 31.6875 60.160156 32.085938 60.433594 32.503906 C 60.519531 32.632812 60.695312 32.667969 60.824219 32.582031 C 60.953125 32.496094 60.988281 32.320312 60.902344 32.191406 C 60.617188 31.757812 60.304688 31.34375 59.972656 30.945312 C 59.871094 30.828125 59.695312 30.8125 59.574219 30.914062 C 59.457031 31.011719 59.441406 31.191406 59.542969 31.308594 Z M 61.183594 33.789062 C 61.40625 34.230469 61.605469 34.6875 61.777344 35.15625 C 61.832031 35.304688 61.992188 35.378906 62.136719 35.324219 C 62.28125 35.269531 62.359375 35.109375 62.304688 34.964844 C 62.125 34.472656 61.917969 33.996094 61.683594 33.535156 C 61.613281 33.398438 61.445312 33.34375 61.308594 33.414062 C 61.167969 33.484375 61.113281 33.652344 61.183594 33.789062 Z M 62.207031 36.585938 C 62.320312 37.0625 62.40625 37.554688 62.46875 38.050781 C 62.484375 38.207031 62.625 38.316406 62.777344 38.296875 C 62.933594 38.277344 63.042969 38.140625 63.023438 37.984375 C 62.964844 37.464844 62.871094 36.953125 62.753906 36.453125 C 62.71875 36.304688 62.566406 36.210938 62.414062 36.246094 C 62.265625 36.28125 62.171875 36.433594 62.207031 36.585938 Z M 62.554688 39.539062 L 62.554688 39.566406 C 62.554688 40.070312 62.527344 40.566406 62.46875 41.054688 C 62.453125 41.207031 62.5625 41.347656 62.714844 41.367188 C 62.871094 41.382812 63.011719 41.273438 63.027344 41.121094 C 63.085938 40.609375 63.117188 40.09375 63.117188 39.566406 L 63.117188 39.539062 C 63.117188 39.382812 62.992188 39.257812 62.835938 39.257812 C 62.679688 39.257812 62.554688 39.382812 62.554688 39.539062 "/>
<path style=" stroke:none;fill-rule:nonzero;fill:rgb(61.959839%,81.568909%,83.139038%);fill-opacity:1;" d="M 52.191406 53.382812 C 52.191406 54.511719 51.277344 55.425781 50.148438 55.425781 L 29.902344 55.425781 C 28.773438 55.425781 27.859375 54.511719 27.859375 53.382812 L 27.859375 14.316406 C 27.859375 13.1875 28.773438 12.273438 29.902344 12.273438 L 50.148438 12.273438 C 51.277344 12.273438 52.191406 13.1875 52.191406 14.316406 L 52.191406 53.382812 "/>
<g clip-path="url(#clip2)" clip-rule="nonzero">
<path style=" stroke:none;fill-rule:nonzero;fill:rgb(36.859131%,14.509583%,56.469727%);fill-opacity:1;" d="M 52.191406 53.382812 L 51.761719 53.382812 C 51.761719 53.828125 51.582031 54.230469 51.289062 54.523438 C 50.996094 54.816406 50.59375 54.992188 50.148438 54.996094 L 29.902344 54.996094 C 29.453125 54.992188 29.054688 54.816406 28.761719 54.523438 C 28.46875 54.230469 28.289062 53.828125 28.289062 53.382812 L 28.289062 14.316406 C 28.289062 13.871094 28.46875 13.46875 28.761719 13.175781 C 29.054688 12.882812 29.453125 12.703125 29.902344 12.703125 L 50.148438 12.703125 C 50.59375 12.703125 50.996094 12.882812 51.289062 13.175781 C 51.582031 13.46875 51.761719 13.871094 51.761719 14.316406 L 51.761719 53.382812 L 52.621094 53.382812 L 52.621094 14.316406 C 52.621094 12.949219 51.515625 11.84375 50.148438 11.84375 L 29.902344 11.84375 C 28.535156 11.84375 27.425781 12.949219 27.425781 14.316406 L 27.425781 53.382812 C 27.425781 54.75 28.535156 55.855469 29.902344 55.855469 L 50.148438 55.855469 C 50.832031 55.855469 51.449219 55.578125 51.898438 55.132812 C 52.34375 54.683594 52.621094 54.0625 52.621094 53.382812 L 52.191406 53.382812 "/>
</g>
<path style=" stroke:none;fill-rule:nonzero;fill:rgb(100%,100%,100%);fill-opacity:1;" d="M 50.683594 51.285156 L 29.363281 51.285156 L 29.363281 15.339844 L 50.683594 15.339844 L 50.683594 51.285156 "/>
<path style=" stroke:none;fill-rule:nonzero;fill:rgb(36.859131%,14.509583%,56.469727%);fill-opacity:1;" d="M 50.683594 51.285156 L 50.683594 50.851562 L 29.796875 50.851562 L 29.796875 15.769531 L 50.253906 15.769531 L 50.253906 51.285156 L 50.683594 51.285156 L 50.683594 50.851562 L 50.683594 51.285156 L 51.113281 51.285156 L 51.113281 15.339844 C 51.113281 15.226562 51.066406 15.117188 50.988281 15.035156 C 50.90625 14.957031 50.796875 14.910156 50.683594 14.910156 L 29.363281 14.910156 C 29.25 14.910156 29.140625 14.957031 29.0625 15.035156 C 28.980469 15.117188 28.933594 15.226562 28.933594 15.339844 L 28.933594 51.285156 C 28.933594 51.398438 28.980469 51.507812 29.0625 51.585938 C 29.140625 51.667969 29.25 51.714844 29.363281 51.714844 L 50.683594 51.714844 C 50.796875 51.714844 50.90625 51.667969 50.988281 51.585938 C 51.066406 51.507812 51.113281 51.398438 51.113281 51.285156 L 50.683594 51.285156 "/>
<path style=" stroke:none;fill-rule:nonzero;fill:rgb(36.859131%,14.509583%,56.469727%);fill-opacity:1;" d="M 35.4375 14.578125 L 44.609375 14.578125 C 44.847656 14.578125 45.042969 14.382812 45.042969 14.148438 C 45.042969 13.910156 44.847656 13.714844 44.609375 13.714844 L 35.4375 13.714844 C 35.199219 13.714844 35.007812 13.910156 35.007812 14.148438 C 35.007812 14.382812 35.199219 14.578125 35.4375 14.578125 "/>
<path style=" stroke:none;fill-rule:nonzero;fill:rgb(100%,100%,100%);fill-opacity:1;" d="M 43.414062 54.574219 L 36.636719 54.574219 L 36.636719 52.507812 L 43.414062 52.507812 L 43.414062 54.574219 "/>
<path style=" stroke:none;fill-rule:nonzero;fill:rgb(36.859131%,14.509583%,56.469727%);fill-opacity:1;" d="M 43.414062 54.574219 L 43.414062 54.140625 L 37.066406 54.140625 L 37.066406 52.9375 L 42.980469 52.9375 L 42.980469 54.574219 L 43.414062 54.574219 L 43.414062 54.140625 L 43.414062 54.574219 L 43.84375 54.574219 L 43.84375 52.507812 C 43.84375 52.394531 43.796875 52.285156 43.714844 52.203125 C 43.636719 52.121094 43.527344 52.078125 43.414062 52.078125 L 36.636719 52.078125 C 36.523438 52.078125 36.410156 52.121094 36.332031 52.203125 C 36.25 52.285156 36.207031 52.394531 36.207031 52.507812 L 36.207031 54.574219 C 36.207031 54.6875 36.25 54.796875 36.332031 54.878906 C 36.410156 54.957031 36.523438 55.003906 36.636719 55.003906 L 43.414062 55.003906 C 43.527344 55.003906 43.636719 54.957031 43.714844 54.878906 C 43.796875 54.796875 43.84375 54.6875 43.84375 54.574219 L 43.414062 54.574219 "/>
<path style=" stroke:none;fill-rule:nonzero;fill:rgb(36.859131%,14.509583%,56.469727%);fill-opacity:1;" d="M 30.542969 17.796875 L 30.542969 29.4375 C 30.542969 29.675781 30.734375 29.871094 30.972656 29.871094 C 31.210938 29.871094 31.402344 29.675781 31.402344 29.4375 L 31.402344 17.796875 C 31.402344 17.5625 31.210938 17.367188 30.972656 17.367188 C 30.734375 17.367188 30.542969 17.5625 30.542969 17.796875 "/>
<path style=" stroke:none;fill-rule:nonzero;fill:rgb(36.859131%,14.509583%,56.469727%);fill-opacity:1;" d="M 30.542969 30.859375 L 30.542969 33.769531 C 30.542969 34.007812 30.734375 34.199219 30.972656 34.199219 C 31.210938 34.199219 31.402344 34.007812 31.402344 33.769531 L 31.402344 30.859375 C 31.402344 30.621094 31.210938 30.425781 30.972656 30.425781 C 30.734375 30.425781 30.542969 30.621094 30.542969 30.859375 "/>
<path style=" stroke:none;fill-rule:nonzero;fill:rgb(93.728638%,16.468811%,59.21936%);fill-opacity:1;" d="M 45.582031 36.851562 L 36.890625 36.851562 L 35.335938 29.699219 L 47.910156 29.699219 L 45.582031 36.851562 "/>
<path style=" stroke:none;fill-rule:nonzero;fill:rgb(36.859131%,14.509583%,56.469727%);fill-opacity:1;" d="M 45.582031 36.851562 L 45.582031 36.453125 L 37.210938 36.453125 L 35.832031 30.097656 L 47.359375 30.097656 L 45.199219 36.730469 L 45.582031 36.851562 L 45.582031 36.453125 L 45.582031 36.851562 L 45.960938 36.976562 L 48.289062 29.824219 C 48.328125 29.699219 48.304688 29.570312 48.230469 29.464844 C 48.15625 29.363281 48.035156 29.300781 47.910156 29.300781 L 35.335938 29.300781 C 35.214844 29.300781 35.101562 29.355469 35.027344 29.449219 C 34.949219 29.542969 34.921875 29.664062 34.945312 29.785156 L 36.5 36.9375 C 36.539062 37.121094 36.699219 37.25 36.890625 37.25 L 45.582031 37.25 C 45.753906 37.25 45.90625 37.140625 45.960938 36.976562 L 45.582031 36.851562 "/>
<path style=" stroke:none;fill-rule:nonzero;fill:rgb(36.859131%,14.509583%,56.469727%);fill-opacity:1;" d="M 45.695312 37.722656 L 36.527344 37.722656 L 34.339844 28.347656 C 34.296875 28.167969 34.136719 28.039062 33.949219 28.039062 L 31.433594 28.039062 C 31.210938 28.039062 31.035156 28.21875 31.035156 28.441406 C 31.035156 28.660156 31.210938 28.839844 31.433594 28.839844 L 33.636719 28.839844 L 35.824219 38.210938 C 35.867188 38.394531 36.027344 38.519531 36.210938 38.519531 L 45.695312 38.519531 C 45.917969 38.519531 46.09375 38.34375 46.09375 38.121094 C 46.09375 37.902344 45.917969 37.722656 45.695312 37.722656 "/>
<path style=" stroke:none;fill-rule:nonzero;fill:rgb(65.489197%,64.709473%,65.098572%);fill-opacity:1;" d="M 39.464844 38.859375 C 39.464844 39.476562 38.964844 39.976562 38.347656 39.976562 C 37.730469 39.976562 37.230469 39.476562 37.230469 38.859375 C 37.230469 38.242188 37.730469 37.742188 38.347656 37.742188 C 38.964844 37.742188 39.464844 38.242188 39.464844 38.859375 "/>
<path style=" stroke:none;fill-rule:nonzero;fill:rgb(36.859131%,14.509583%,56.469727%);fill-opacity:1;" d="M 39.464844 38.859375 L 39.066406 38.859375 C 39.066406 39.058594 38.988281 39.238281 38.855469 39.367188 C 38.726562 39.5 38.546875 39.578125 38.347656 39.578125 C 38.148438 39.578125 37.972656 39.5 37.839844 39.367188 C 37.707031 39.238281 37.628906 39.058594 37.628906 38.859375 C 37.628906 38.660156 37.707031 38.484375 37.839844 38.351562 C 37.972656 38.222656 38.148438 38.140625 38.347656 38.140625 C 38.546875 38.140625 38.726562 38.222656 38.855469 38.351562 C 38.988281 38.484375 39.066406 38.660156 39.066406 38.859375 L 39.863281 38.859375 C 39.863281 38.023438 39.183594 37.34375 38.347656 37.34375 C 37.511719 37.34375 36.832031 38.023438 36.832031 38.859375 C 36.832031 39.699219 37.511719 40.375 38.347656 40.375 C 39.183594 40.375 39.863281 39.699219 39.863281 38.859375 L 39.464844 38.859375 "/>
<path style=" stroke:none;fill-rule:nonzero;fill:rgb(65.489197%,64.709473%,65.098572%);fill-opacity:1;" d="M 45.054688 38.859375 C 45.054688 39.476562 44.554688 39.976562 43.933594 39.976562 C 43.320312 39.976562 42.816406 39.476562 42.816406 38.859375 C 42.816406 38.242188 43.320312 37.742188 43.933594 37.742188 C 44.554688 37.742188 45.054688 38.242188 45.054688 38.859375 "/>
<path style=" stroke:none;fill-rule:nonzero;fill:rgb(36.859131%,14.509583%,56.469727%);fill-opacity:1;" d="M 45.054688 38.859375 L 44.65625 38.859375 C 44.652344 39.058594 44.574219 39.238281 44.445312 39.367188 C 44.3125 39.5 44.136719 39.578125 43.933594 39.578125 C 43.734375 39.578125 43.558594 39.5 43.425781 39.367188 C 43.296875 39.238281 43.21875 39.058594 43.21875 38.859375 C 43.21875 38.660156 43.296875 38.484375 43.429688 38.351562 C 43.558594 38.222656 43.734375 38.140625 43.933594 38.140625 C 44.136719 38.140625 44.3125 38.222656 44.445312 38.351562 C 44.574219 38.484375 44.652344 38.660156 44.65625 38.859375 L 45.453125 38.859375 C 45.453125 38.023438 44.773438 37.34375 43.933594 37.34375 C 43.097656 37.34375 42.421875 38.023438 42.421875 38.859375 C 42.421875 39.699219 43.097656 40.375 43.933594 40.375 C 44.773438 40.375 45.453125 39.699219 45.453125 38.859375 L 45.054688 38.859375 "/>
<path style=" stroke:none;fill-rule:nonzero;fill:rgb(93.728638%,16.468811%,59.21936%);fill-opacity:1;" d="M 32.695312 55.550781 L 12.148438 55.550781 L 12.148438 36.816406 L 32.695312 36.816406 L 32.695312 55.550781 "/>
<path style=" stroke:none;fill-rule:nonzero;fill:rgb(36.859131%,14.509583%,56.469727%);fill-opacity:1;" d="M 32.695312 55.550781 L 32.695312 55.28125 L 12.414062 55.28125 L 12.414062 37.082031 L 32.429688 37.082031 L 32.429688 55.550781 L 32.695312 55.550781 L 32.695312 55.28125 L 32.695312 55.550781 L 32.960938 55.550781 L 32.960938 36.816406 C 32.960938 36.746094 32.929688 36.679688 32.882812 36.628906 C 32.832031 36.582031 32.761719 36.550781 32.695312 36.550781 L 12.148438 36.550781 C 12.078125 36.550781 12.007812 36.582031 11.957031 36.628906 C 11.910156 36.679688 11.878906 36.746094 11.878906 36.816406 L 11.878906 55.550781 C 11.878906 55.621094 11.910156 55.6875 11.957031 55.738281 C 12.007812 55.789062 12.078125 55.816406 12.148438 55.816406 L 32.695312 55.816406 C 32.761719 55.816406 32.832031 55.789062 32.882812 55.738281 C 32.929688 55.6875 32.960938 55.621094 32.960938 55.550781 L 32.695312 55.550781 "/>
<path style=" stroke:none;fill-rule:nonzero;fill:rgb(61.959839%,81.568909%,83.139038%);fill-opacity:1;" d="M 24.570312 55.550781 L 20.269531 55.550781 L 20.269531 36.101562 L 24.570312 36.101562 L 24.570312 55.550781 "/>
<path style=" stroke:none;fill-rule:nonzero;fill:rgb(36.859131%,14.509583%,56.469727%);fill-opacity:1;" d="M 24.570312 55.550781 L 24.570312 55.28125 L 20.535156 55.28125 L 20.535156 36.367188 L 24.304688 36.367188 L 24.304688 55.550781 L 24.570312 55.550781 L 24.570312 55.28125 L 24.570312 55.550781 L 24.835938 55.550781 L 24.835938 36.101562 C 24.835938 36.03125 24.808594 35.960938 24.757812 35.914062 C 24.710938 35.863281 24.640625 35.835938 24.570312 35.835938 L 20.269531 35.835938 C 20.199219 35.835938 20.132812 35.863281 20.082031 35.914062 C 20.03125 35.960938 20.003906 36.03125 20.003906 36.101562 L 20.003906 55.550781 C 20.003906 55.621094 20.03125 55.6875 20.082031 55.738281 C 20.132812 55.789062 20.199219 55.816406 20.269531 55.816406 L 24.570312 55.816406 C 24.640625 55.816406 24.710938 55.789062 24.757812 55.738281 C 24.808594 55.6875 24.835938 55.621094 24.835938 55.550781 L 24.570312 55.550781 "/>
<path style=" stroke:none;fill-rule:nonzero;fill:rgb(93.728638%,16.468811%,59.21936%);fill-opacity:1;" d="M 33.839844 40.875 L 11 40.875 L 11 36.105469 L 33.839844 36.105469 L 33.839844 40.875 "/>
<path style=" stroke:none;fill-rule:nonzero;fill:rgb(36.859131%,14.509583%,56.469727%);fill-opacity:1;" d="M 33.839844 40.875 L 33.839844 40.609375 L 11.265625 40.609375 L 11.265625 36.371094 L 33.574219 36.371094 L 33.574219 40.875 L 33.839844 40.875 L 33.839844 40.609375 L 33.839844 40.875 L 34.105469 40.875 L 34.105469 36.105469 C 34.105469 36.035156 34.078125 35.964844 34.027344 35.917969 C 33.980469 35.867188 33.910156 35.839844 33.839844 35.839844 L 11 35.839844 C 10.929688 35.839844 10.859375 35.867188 10.8125 35.917969 C 10.761719 35.964844 10.734375 36.035156 10.734375 36.105469 L 10.734375 40.875 C 10.734375 40.945312 10.761719 41.015625 10.8125 41.0625 C 10.859375 41.113281 10.929688 41.140625 11 41.140625 L 33.839844 41.140625 C 33.910156 41.140625 33.980469 41.113281 34.027344 41.0625 C 34.078125 41.015625 34.105469 40.945312 34.105469 40.875 L 33.839844 40.875 "/>
<path style=" stroke:none;fill-rule:nonzero;fill:rgb(61.959839%,81.568909%,83.139038%);fill-opacity:1;" d="M 24.570312 40.894531 L 20.269531 40.894531 L 20.269531 36.101562 L 24.570312 36.101562 L 24.570312 40.894531 "/>
<path style=" stroke:none;fill-rule:nonzero;fill:rgb(36.859131%,14.509583%,56.469727%);fill-opacity:1;" d="M 24.570312 40.894531 L 24.570312 40.628906 L 20.535156 40.628906 L 20.535156 36.367188 L 24.304688 36.367188 L 24.304688 40.894531 L 24.570312 40.894531 L 24.570312 40.628906 L 24.570312 40.894531 L 24.835938 40.894531 L 24.835938 36.101562 C 24.835938 36.03125 24.808594 35.960938 24.757812 35.914062 C 24.710938 35.863281 24.640625 35.835938 24.570312 35.835938 L 20.269531 35.835938 C 20.199219 35.835938 20.132812 35.863281 20.082031 35.914062 C 20.03125 35.960938 20.003906 36.03125 20.003906 36.101562 L 20.003906 40.894531 C 20.003906 40.964844 20.03125 41.035156 20.082031 41.082031 C 20.132812 41.132812 20.199219 41.160156 20.269531 41.160156 L 24.570312 41.160156 C 24.640625 41.160156 24.710938 41.132812 24.757812 41.082031 C 24.808594 41.035156 24.835938 40.964844 24.835938 40.894531 L 24.570312 40.894531 "/>
<path style=" stroke:none;fill-rule:nonzero;fill:rgb(61.959839%,81.568909%,83.139038%);fill-opacity:1;" d="M 21.5625 36.132812 L 25.679688 43.398438 L 26.503906 40.441406 L 29.421875 41.28125 L 26.503906 36.132812 L 21.5625 36.132812 "/>
<path style=" stroke:none;fill-rule:nonzero;fill:rgb(36.859131%,14.509583%,56.469727%);fill-opacity:1;" d="M 21.5625 36.132812 L 21.332031 36.265625 L 25.449219 43.53125 C 25.503906 43.625 25.605469 43.675781 25.710938 43.664062 C 25.820312 43.652344 25.90625 43.574219 25.9375 43.472656 L 26.6875 40.773438 L 29.347656 41.535156 C 29.453125 41.566406 29.5625 41.53125 29.632812 41.445312 C 29.699219 41.359375 29.707031 41.242188 29.652344 41.148438 L 26.738281 36 C 26.691406 35.917969 26.601562 35.867188 26.503906 35.867188 L 21.5625 35.867188 C 21.46875 35.867188 21.382812 35.917969 21.332031 36 C 21.285156 36.082031 21.285156 36.179688 21.332031 36.265625 L 21.5625 36.132812 L 21.5625 36.398438 L 26.351562 36.398438 L 28.871094 40.84375 L 26.578125 40.1875 C 26.507812 40.167969 26.4375 40.175781 26.375 40.210938 C 26.3125 40.246094 26.265625 40.304688 26.246094 40.371094 L 25.597656 42.710938 L 21.792969 36 L 21.5625 36.132812 L 21.5625 36.398438 L 21.5625 36.132812 "/>
<path style=" stroke:none;fill-rule:nonzero;fill:rgb(61.959839%,81.568909%,83.139038%);fill-opacity:1;" d="M 18.335938 36.132812 L 15.417969 41.28125 L 18.335938 40.441406 L 19.160156 43.398438 L 23.277344 36.132812 L 18.335938 36.132812 "/>
<path style=" stroke:none;fill-rule:nonzero;fill:rgb(36.859131%,14.509583%,56.469727%);fill-opacity:1;" d="M 18.335938 36.132812 L 18.101562 36 L 15.1875 41.148438 C 15.132812 41.242188 15.140625 41.359375 15.207031 41.445312 C 15.277344 41.53125 15.386719 41.566406 15.492188 41.535156 L 18.152344 40.773438 L 18.902344 43.472656 C 18.933594 43.574219 19.019531 43.652344 19.128906 43.664062 C 19.234375 43.675781 19.339844 43.625 19.390625 43.53125 L 23.507812 36.265625 C 23.554688 36.179688 23.554688 36.082031 23.507812 36 C 23.460938 35.917969 23.371094 35.867188 23.277344 35.867188 L 18.335938 35.867188 C 18.238281 35.867188 18.152344 35.917969 18.101562 36 L 18.335938 36.132812 L 18.335938 36.398438 L 22.820312 36.398438 L 19.246094 42.710938 L 18.59375 40.371094 C 18.574219 40.304688 18.527344 40.246094 18.464844 40.210938 C 18.40625 40.175781 18.332031 40.167969 18.261719 40.1875 L 15.96875 40.84375 L 18.566406 36.265625 L 18.335938 36.132812 L 18.335938 36.398438 L 18.335938 36.132812 "/>
<path style=" stroke:none;fill-rule:nonzero;fill:rgb(61.959839%,81.568909%,83.139038%);fill-opacity:1;" d="M 28.382812 34.890625 L 24.144531 34.890625 C 24.035156 34.785156 23.972656 34.644531 23.972656 34.460938 C 23.972656 33.277344 26.550781 30.699219 27.738281 30.699219 C 28.921875 30.699219 29.882812 31.660156 29.882812 32.84375 C 29.882812 33.804688 29.253906 34.617188 28.382812 34.890625 Z M 20.695312 34.890625 L 16.457031 34.890625 C 15.589844 34.617188 14.957031 33.804688 14.957031 32.84375 C 14.957031 31.660156 15.917969 30.699219 17.101562 30.699219 C 18.289062 30.699219 20.867188 33.277344 20.867188 34.460938 C 20.867188 34.644531 20.804688 34.785156 20.695312 34.890625 Z M 28.175781 28.980469 C 26.636719 28.980469 23.710938 31.546875 22.417969 33.652344 C 21.128906 31.546875 18.203125 28.980469 16.664062 28.980469 C 14.652344 28.980469 13.019531 30.613281 13.019531 32.625 C 13.019531 34.253906 14.089844 35.636719 15.566406 36.101562 L 29.273438 36.101562 C 30.75 35.636719 31.820312 34.253906 31.820312 32.625 C 31.820312 30.613281 30.1875 28.980469 28.175781 28.980469 "/>
<path style=" stroke:none;fill-rule:nonzero;fill:rgb(36.859131%,14.509583%,56.469727%);fill-opacity:1;" d="M 28.382812 34.890625 L 28.382812 34.625 L 24.144531 34.625 L 24.144531 34.890625 L 24.328125 34.699219 C 24.300781 34.667969 24.277344 34.640625 24.265625 34.605469 C 24.25 34.566406 24.238281 34.523438 24.238281 34.460938 C 24.238281 34.363281 24.269531 34.222656 24.335938 34.058594 C 24.445312 33.773438 24.660156 33.421875 24.9375 33.070312 C 25.347656 32.542969 25.894531 32.003906 26.421875 31.601562 C 26.683594 31.402344 26.945312 31.238281 27.175781 31.128906 C 27.402344 31.015625 27.605469 30.964844 27.738281 30.964844 C 28.257812 30.964844 28.726562 31.175781 29.066406 31.515625 C 29.40625 31.855469 29.617188 32.324219 29.617188 32.84375 C 29.617188 33.683594 29.0625 34.394531 28.304688 34.636719 L 28.382812 34.890625 L 28.382812 34.625 L 28.382812 34.890625 L 28.460938 35.144531 C 29.441406 34.835938 30.148438 33.921875 30.148438 32.84375 C 30.148438 31.511719 29.070312 30.433594 27.738281 30.433594 C 27.542969 30.433594 27.34375 30.484375 27.136719 30.566406 C 26.78125 30.707031 26.398438 30.945312 26.019531 31.242188 C 25.449219 31.683594 24.886719 32.257812 24.453125 32.824219 C 24.238281 33.109375 24.054688 33.394531 23.925781 33.667969 C 23.792969 33.941406 23.707031 34.203125 23.707031 34.460938 C 23.707031 34.582031 23.726562 34.699219 23.773438 34.808594 C 23.816406 34.914062 23.882812 35.007812 23.960938 35.082031 C 24.011719 35.128906 24.078125 35.15625 24.144531 35.15625 L 28.382812 35.15625 C 28.410156 35.15625 28.4375 35.152344 28.460938 35.144531 Z M 20.695312 34.890625 L 20.695312 34.625 L 16.457031 34.625 L 16.457031 34.890625 L 16.535156 34.636719 C 15.777344 34.394531 15.222656 33.683594 15.222656 32.84375 C 15.222656 32.324219 15.433594 31.855469 15.773438 31.515625 C 16.117188 31.175781 16.582031 30.964844 17.101562 30.964844 C 17.203125 30.964844 17.34375 30.992188 17.507812 31.058594 C 17.792969 31.171875 18.140625 31.386719 18.496094 31.660156 C 19.023438 32.074219 19.5625 32.617188 19.960938 33.144531 C 20.160156 33.410156 20.324219 33.667969 20.4375 33.898438 C 20.546875 34.128906 20.601562 34.332031 20.601562 34.460938 C 20.601562 34.523438 20.589844 34.566406 20.578125 34.605469 C 20.5625 34.640625 20.542969 34.667969 20.511719 34.699219 L 20.695312 34.890625 L 20.695312 34.625 L 20.695312 34.890625 L 20.878906 35.082031 C 20.957031 35.007812 21.023438 34.914062 21.066406 34.808594 C 21.113281 34.699219 21.132812 34.582031 21.132812 34.460938 C 21.132812 34.265625 21.082031 34.066406 21 33.863281 C 20.859375 33.503906 20.621094 33.125 20.324219 32.742188 C 19.878906 32.175781 19.308594 31.609375 18.738281 31.179688 C 18.453125 30.964844 18.171875 30.78125 17.898438 30.648438 C 17.621094 30.519531 17.359375 30.433594 17.101562 30.433594 C 15.769531 30.433594 14.691406 31.511719 14.691406 32.84375 C 14.691406 33.921875 15.398438 34.835938 16.378906 35.144531 C 16.402344 35.152344 16.429688 35.15625 16.457031 35.15625 L 20.695312 35.15625 C 20.765625 35.15625 20.828125 35.128906 20.878906 35.082031 Z M 28.175781 28.980469 L 28.175781 28.714844 C 27.71875 28.71875 27.214844 28.898438 26.683594 29.179688 C 25.882812 29.609375 25.015625 30.285156 24.21875 31.058594 C 23.417969 31.832031 22.691406 32.699219 22.191406 33.511719 L 22.417969 33.652344 L 22.648438 33.511719 C 21.980469 32.425781 20.914062 31.246094 19.804688 30.324219 C 19.253906 29.863281 18.691406 29.464844 18.15625 29.179688 C 17.625 28.898438 17.121094 28.71875 16.664062 28.714844 C 14.503906 28.714844 12.753906 30.464844 12.753906 32.625 C 12.753906 34.375 13.902344 35.855469 15.488281 36.355469 C 15.511719 36.363281 15.539062 36.367188 15.566406 36.367188 L 29.273438 36.367188 C 29.300781 36.367188 29.328125 36.363281 29.351562 36.355469 C 30.9375 35.855469 32.085938 34.375 32.085938 32.625 C 32.085938 30.464844 30.335938 28.714844 28.175781 28.714844 L 28.175781 29.246094 C 29.109375 29.246094 29.953125 29.625 30.5625 30.238281 C 31.175781 30.847656 31.554688 31.691406 31.554688 32.625 C 31.554688 34.136719 30.5625 35.414062 29.195312 35.847656 L 29.273438 36.101562 L 29.273438 35.835938 L 15.566406 35.835938 L 15.566406 36.101562 L 15.648438 35.847656 C 14.277344 35.414062 13.285156 34.136719 13.285156 32.625 C 13.285156 31.691406 13.664062 30.847656 14.277344 30.238281 C 14.886719 29.625 15.730469 29.246094 16.664062 29.246094 C 16.976562 29.246094 17.417969 29.386719 17.90625 29.648438 C 18.640625 30.042969 19.484375 30.695312 20.253906 31.441406 C 21.023438 32.1875 21.726562 33.027344 22.191406 33.792969 C 22.242188 33.871094 22.328125 33.917969 22.417969 33.917969 C 22.511719 33.917969 22.597656 33.871094 22.648438 33.792969 C 23.269531 32.773438 24.308594 31.617188 25.375 30.730469 C 25.90625 30.289062 26.445312 29.910156 26.933594 29.648438 C 27.421875 29.386719 27.863281 29.246094 28.175781 29.246094 L 28.175781 28.980469 "/>
<path style=" stroke:none;fill-rule:nonzero;fill:rgb(61.959839%,81.568909%,83.139038%);fill-opacity:1;" d="M 23.929688 35.484375 C 23.929688 35.855469 23.628906 36.15625 23.257812 36.15625 L 21.582031 36.15625 C 21.210938 36.15625 20.910156 35.855469 20.910156 35.484375 L 20.910156 33.808594 C 20.910156 33.4375 21.210938 33.140625 21.582031 33.140625 L 23.257812 33.140625 C 23.628906 33.140625 23.929688 33.4375 23.929688 33.808594 L 23.929688 35.484375 "/>
<path style=" stroke:none;fill-rule:nonzero;fill:rgb(36.859131%,14.509583%,56.469727%);fill-opacity:1;" d="M 23.929688 35.484375 L 23.664062 35.484375 C 23.664062 35.707031 23.480469 35.890625 23.257812 35.890625 L 21.582031 35.890625 C 21.359375 35.890625 21.175781 35.707031 21.175781 35.484375 L 21.175781 33.808594 C 21.175781 33.585938 21.359375 33.40625 21.582031 33.40625 L 23.257812 33.40625 C 23.480469 33.40625 23.664062 33.585938 23.664062 33.808594 L 23.664062 35.484375 L 24.195312 35.484375 L 24.195312 33.808594 C 24.195312 33.292969 23.777344 32.871094 23.257812 32.871094 L 21.582031 32.871094 C 21.066406 32.875 20.644531 33.292969 20.644531 33.808594 L 20.644531 35.484375 C 20.644531 36.003906 21.066406 36.421875 21.582031 36.421875 L 23.257812 36.421875 C 23.777344 36.421875 24.195312 36.003906 24.195312 35.484375 L 23.929688 35.484375 "/>
<path style=" stroke:none;fill-rule:nonzero;fill:rgb(36.859131%,14.509583%,56.469727%);fill-opacity:1;" d="M 21.453125 50.261719 L 21.453125 43.296875 C 21.453125 43.152344 21.332031 43.03125 21.1875 43.03125 C 21.039062 43.03125 20.921875 43.152344 20.921875 43.296875 L 20.921875 50.261719 C 20.921875 50.410156 21.039062 50.527344 21.1875 50.527344 C 21.332031 50.527344 21.453125 50.410156 21.453125 50.261719 "/>
<path style=" stroke:none;fill-rule:nonzero;fill:rgb(36.859131%,14.509583%,56.469727%);fill-opacity:1;" d="M 25.894531 54.914062 L 30.28125 54.914062 C 30.425781 54.914062 30.546875 54.792969 30.546875 54.644531 C 30.546875 54.5 30.425781 54.378906 30.28125 54.378906 L 25.894531 54.378906 C 25.746094 54.378906 25.628906 54.5 25.628906 54.644531 C 25.628906 54.792969 25.746094 54.914062 25.894531 54.914062 "/>
<path style=" stroke:none;fill-rule:nonzero;fill:rgb(36.859131%,14.509583%,56.469727%);fill-opacity:1;" d="M 13.578125 54.976562 L 18.800781 54.976562 C 18.949219 54.976562 19.066406 54.859375 19.066406 54.710938 C 19.066406 54.5625 18.949219 54.445312 18.800781 54.445312 L 13.578125 54.445312 C 13.429688 54.445312 13.3125 54.5625 13.3125 54.710938 C 13.3125 54.859375 13.429688 54.976562 13.578125 54.976562 "/>
<path style=" stroke:none;fill-rule:nonzero;fill:rgb(79.219055%,52.938843%,24.308777%);fill-opacity:1;" d="M 66.554688 55.710938 L 47.503906 55.710938 L 47.503906 36.65625 L 66.554688 36.65625 L 66.554688 55.710938 "/>
<path style=" stroke:none;fill-rule:nonzero;fill:rgb(36.859131%,14.509583%,56.469727%);fill-opacity:1;" d="M 66.554688 55.710938 L 66.554688 55.519531 L 47.695312 55.519531 L 47.695312 36.847656 L 66.367188 36.847656 L 66.367188 55.710938 L 66.554688 55.710938 L 66.554688 55.519531 L 66.554688 55.710938 L 66.746094 55.710938 L 66.746094 36.46875 L 47.316406 36.46875 L 47.316406 55.898438 L 66.746094 55.898438 L 66.746094 55.710938 L 66.554688 55.710938 "/>
<path style=" stroke:none;fill-rule:nonzero;fill:rgb(98.429871%,77.648926%,26.669312%);fill-opacity:1;" d="M 60.476562 42.867188 L 57.117188 41.902344 L 53.585938 42.867188 L 53.585938 36.65625 L 60.476562 36.65625 L 60.476562 42.867188 "/>
<path style=" stroke:none;fill-rule:nonzero;fill:rgb(36.859131%,14.509583%,56.469727%);fill-opacity:1;" d="M 60.476562 42.867188 L 60.527344 42.683594 L 57.117188 41.707031 L 53.773438 42.617188 L 53.773438 36.847656 L 60.285156 36.847656 L 60.285156 42.867188 L 60.476562 42.867188 L 60.527344 42.683594 L 60.476562 42.867188 L 60.664062 42.867188 L 60.664062 36.46875 L 53.394531 36.46875 L 53.394531 43.113281 L 57.113281 42.097656 L 60.664062 43.117188 L 60.664062 42.867188 L 60.476562 42.867188 "/>
<path style=" stroke:none;fill-rule:nonzero;fill:rgb(36.859131%,14.509583%,56.469727%);fill-opacity:1;" d="M 48.242188 46.253906 L 48.621094 46.253906 L 48.621094 39.90625 L 48.242188 39.90625 Z M 48.242188 46.253906 "/>
<path style=" stroke:none;fill-rule:nonzero;fill:rgb(36.859131%,14.509583%,56.469727%);fill-opacity:1;" d="M 48.242188 47.898438 L 48.621094 47.898438 L 48.621094 46.96875 L 48.242188 46.96875 Z M 48.242188 47.898438 "/>
</g>
</svg>
