<?xml version="1.0" encoding="UTF-8"?>
<svg xmlns="http://www.w3.org/2000/svg" xmlns:xlink="http://www.w3.org/1999/xlink" width="104.88pt" height="82.499998pt" viewBox="0 0 104.88 82.499998" version="1.2">
<defs>
<clipPath id="clip1">
  <path d="M 11.4375 0 L 93.441406 0 L 93.441406 55 L 11.4375 55 Z M 11.4375 0 "/>
</clipPath>
<clipPath id="clip2">
  <path d="M 52 34 L 93.441406 34 L 93.441406 82.003906 L 52 82.003906 Z M 52 34 "/>
</clipPath>
</defs>
<g id="surface1">
<g clip-path="url(#clip1)" clip-rule="nonzero">
<path style=" stroke:none;fill-rule:nonzero;fill:rgb(0%,0%,0%);fill-opacity:1;" d="M 43.898438 54.667969 L 19.980469 54.667969 C 15.269531 54.667969 11.4375 50.835938 11.4375 46.125 L 11.4375 8.542969 C 11.4375 3.832031 15.269531 0 19.980469 0 L 84.898438 0 C 89.609375 0 93.441406 3.832031 93.441406 8.542969 L 93.441406 32.460938 C 93.441406 33.402344 92.675781 34.167969 91.734375 34.167969 C 90.789062 34.167969 90.023438 33.402344 90.023438 32.460938 L 90.023438 8.542969 C 90.023438 5.714844 87.726562 3.417969 84.898438 3.417969 L 19.980469 3.417969 C 17.15625 3.417969 14.855469 5.714844 14.855469 8.542969 L 14.855469 46.125 C 14.855469 48.953125 17.15625 51.25 19.980469 51.25 L 43.898438 51.25 C 44.839844 51.25 45.605469 52.015625 45.605469 52.960938 C 45.605469 53.902344 44.839844 54.667969 43.898438 54.667969 Z M 43.898438 54.667969 "/>
</g>
<path style=" stroke:none;fill-rule:nonzero;fill:rgb(0%,0%,0%);fill-opacity:1;" d="M 47.589844 36.082031 C 47.25 36.082031 46.914062 35.980469 46.617188 35.777344 C 43.84375 33.859375 42.191406 30.703125 42.191406 27.335938 C 42.191406 21.683594 46.789062 17.082031 52.441406 17.082031 C 58.089844 17.082031 62.691406 21.683594 62.691406 27.335938 C 62.691406 28.277344 61.925781 29.042969 60.980469 29.042969 C 60.039062 29.042969 59.273438 28.277344 59.273438 27.335938 C 59.273438 23.566406 56.207031 20.5 52.441406 20.5 C 48.671875 20.5 45.605469 23.566406 45.605469 27.335938 C 45.605469 29.582031 46.710938 31.6875 48.558594 32.96875 C 49.335938 33.503906 49.527344 34.570312 48.992188 35.347656 C 48.664062 35.824219 48.128906 36.082031 47.589844 36.082031 Z M 47.589844 36.082031 "/>
<path style=" stroke:none;fill-rule:nonzero;fill:rgb(0%,0%,0%);fill-opacity:1;" d="M 30.230469 13.667969 L 23.398438 13.667969 C 22.453125 13.667969 21.6875 12.902344 21.6875 11.957031 C 21.6875 11.015625 22.453125 10.25 23.398438 10.25 L 30.230469 10.25 C 31.175781 10.25 31.9375 11.015625 31.9375 11.957031 C 31.9375 12.902344 31.175781 13.667969 30.230469 13.667969 Z M 30.230469 13.667969 "/>
<g clip-path="url(#clip2)" clip-rule="nonzero">
<path style=" stroke:none;fill-rule:nonzero;fill:rgb(0%,0%,0%);fill-opacity:1;" d="M 72.941406 82.003906 C 72.714844 82.003906 72.488281 81.957031 72.277344 81.867188 C 71.464844 81.527344 52.441406 73.304688 52.441406 56.5 L 52.441406 42.222656 C 52.441406 41.488281 52.90625 40.835938 53.601562 40.601562 L 72.394531 34.257812 C 72.75 34.136719 73.136719 34.136719 73.488281 34.257812 L 92.28125 40.601562 C 92.972656 40.835938 93.441406 41.488281 93.441406 42.222656 L 93.441406 56.5 C 93.441406 73.304688 74.417969 81.527344 73.605469 81.871094 C 73.390625 81.957031 73.167969 82.003906 72.941406 82.003906 Z M 55.855469 43.449219 L 55.855469 56.5 C 55.855469 69.433594 69.710938 76.855469 72.941406 78.414062 C 76.167969 76.855469 90.023438 69.402344 90.023438 56.5 L 90.023438 43.449219 L 72.941406 37.679688 Z M 55.855469 43.449219 "/>
</g>
<path style=" stroke:none;fill-rule:nonzero;fill:rgb(0%,0%,0%);fill-opacity:1;" d="M 71.230469 64.917969 C 71.203125 64.917969 71.167969 64.917969 71.140625 64.914062 C 70.652344 64.886719 70.203125 64.65625 69.898438 64.277344 L 63.066406 55.734375 C 62.480469 54.996094 62.59375 53.921875 63.332031 53.332031 C 64.078125 52.746094 65.148438 52.867188 65.734375 53.597656 L 71.371094 60.652344 L 81.980469 50.042969 C 82.648438 49.375 83.730469 49.375 84.398438 50.042969 C 85.0625 50.707031 85.0625 51.792969 84.398438 52.457031 L 72.4375 64.417969 C 72.121094 64.742188 71.683594 64.917969 71.230469 64.917969 Z M 71.230469 64.917969 "/>
</g>
</svg>
