<?xml version="1.0" encoding="UTF-8"?>
<svg xmlns="http://www.w3.org/2000/svg" xmlns:xlink="http://www.w3.org/1999/xlink" width="104.88pt" height="82.499998pt" viewBox="0 0 104.88 82.499998" version="1.2">
<defs>
<clipPath id="clip1">
  <path d="M 17.085938 0 L 74 0 L 74 82.003906 L 17.085938 82.003906 Z M 17.085938 0 "/>
</clipPath>
<clipPath id="clip2">
  <path d="M 52 32.800781 L 95.707031 32.800781 L 95.707031 38.269531 L 52 38.269531 Z M 52 32.800781 "/>
</clipPath>
<clipPath id="clip3">
  <path d="M 52 41 L 95.707031 41 L 95.707031 43.734375 L 52 43.734375 Z M 52 41 "/>
</clipPath>
<clipPath id="clip4">
  <path d="M 56.4375 46.46875 L 95.707031 46.46875 L 95.707031 62.867188 L 56.4375 62.867188 Z M 56.4375 46.46875 "/>
</clipPath>
</defs>
<g id="surface1">
<path style=" stroke:none;fill-rule:nonzero;fill:rgb(0%,0%,0%);fill-opacity:1;" d="M 82.152344 57.402344 C 83.648438 57.402344 84.867188 56.175781 84.867188 54.667969 C 84.867188 53.164062 83.648438 51.933594 82.152344 51.933594 C 80.65625 51.933594 79.441406 53.164062 79.441406 54.667969 C 79.441406 56.175781 80.65625 57.402344 82.152344 57.402344 "/>
<path style=" stroke:none;fill-rule:nonzero;fill:rgb(0%,0%,0%);fill-opacity:1;" d="M 87.578125 57.402344 C 89.070312 57.402344 90.289062 56.175781 90.289062 54.667969 C 90.289062 53.164062 89.070312 51.933594 87.578125 51.933594 C 87.339844 51.933594 87.105469 51.976562 86.878906 52.042969 C 87.3125 52.828125 87.578125 53.714844 87.578125 54.667969 C 87.578125 55.625 87.3125 56.511719 86.878906 57.296875 C 87.105469 57.359375 87.339844 57.402344 87.578125 57.402344 "/>
<path style=" stroke:none;fill-rule:nonzero;fill:rgb(0%,0%,0%);fill-opacity:1;" d="M 50.96875 50.570312 L 50.96875 55.207031 C 50.96875 61.722656 47.8125 67.828125 42.515625 71.558594 C 41.84375 72.125 40.996094 72.4375 40.121094 72.4375 C 39.242188 72.4375 38.394531 72.125 37.722656 71.558594 C 32.425781 67.828125 29.273438 61.722656 29.273438 55.207031 L 29.273438 50.570312 L 31.164062 50.570312 C 34.351562 50.570312 37.46875 49.617188 40.121094 47.835938 C 42.769531 49.617188 45.890625 50.570312 49.078125 50.570312 Z M 42.378906 44.421875 L 40.121094 42.90625 L 37.863281 44.421875 C 35.875 45.757812 33.554688 46.46875 31.164062 46.46875 L 25.207031 46.46875 L 25.207031 55.207031 C 25.207031 62.980469 28.957031 70.3125 35.242188 74.8125 C 38.085938 77.066406 42.203125 77.023438 44.945312 74.855469 C 51.28125 70.3125 55.035156 62.980469 55.035156 55.207031 L 55.035156 46.46875 L 49.078125 46.46875 C 46.683594 46.46875 44.363281 45.757812 42.378906 44.421875 "/>
<g clip-path="url(#clip1)" clip-rule="nonzero">
<path style=" stroke:none;fill-rule:nonzero;fill:rgb(0%,0%,0%);fill-opacity:1;" d="M 34.699219 21.867188 C 36.9375 21.867188 38.765625 23.703125 38.765625 25.96875 C 38.765625 28.230469 36.9375 30.066406 34.699219 30.066406 C 32.453125 30.066406 30.628906 28.230469 30.628906 25.96875 C 30.628906 23.703125 32.453125 21.867188 34.699219 21.867188 Z M 36.054688 12.300781 C 36.054688 7.027344 40.3125 2.734375 45.542969 2.734375 C 50.777344 2.734375 55.035156 7.027344 55.035156 12.300781 L 55.035156 16.402344 L 36.054688 16.402344 Z M 55.644531 65.601562 C 53.753906 70.128906 50.644531 74.121094 46.566406 77.042969 C 44.769531 78.464844 42.46875 79.269531 40.121094 79.269531 C 37.773438 79.269531 35.464844 78.464844 33.617188 77.007812 C 26.671875 72.03125 22.496094 63.867188 22.496094 55.207031 L 22.496094 43.734375 L 31.164062 43.734375 C 33.019531 43.734375 34.8125 43.183594 36.359375 42.148438 L 40.121094 39.625 L 43.882812 42.148438 C 45.421875 43.183594 47.222656 43.734375 49.078125 43.734375 L 49.613281 43.734375 L 49.613281 34.167969 C 49.613281 31.902344 51.433594 30.066406 53.679688 30.066406 L 56.390625 30.066406 C 54.144531 30.066406 52.324219 28.230469 52.324219 25.96875 C 52.324219 23.703125 54.144531 21.867188 56.390625 21.867188 C 58.632812 21.867188 60.460938 23.703125 60.460938 25.96875 C 60.460938 28.230469 58.632812 30.066406 56.390625 30.066406 L 68.921875 30.066406 L 67.796875 20.035156 C 67.5625 17.964844 65.820312 16.402344 63.753906 16.402344 L 57.746094 16.402344 L 57.746094 12.300781 C 57.746094 5.515625 52.269531 0 45.542969 0 C 38.8125 0 33.339844 5.515625 33.339844 12.300781 L 33.339844 16.402344 L 27.335938 16.402344 C 25.265625 16.402344 23.527344 17.964844 23.292969 20.035156 L 17.117188 74.816406 C 20.285156 79.328125 25.40625 82.003906 30.914062 82.003906 L 60.171875 82.003906 C 65.675781 82.003906 70.796875 79.328125 73.964844 74.816406 L 72.925781 65.601562 L 55.644531 65.601562 "/>
</g>
<g clip-path="url(#clip2)" clip-rule="nonzero">
<path style=" stroke:none;fill-rule:nonzero;fill:rgb(0%,0%,0%);fill-opacity:1;" d="M 94.355469 32.800781 L 53.679688 32.800781 C 52.929688 32.800781 52.324219 33.414062 52.324219 34.167969 L 52.324219 38.269531 L 95.714844 38.269531 L 95.714844 34.167969 C 95.714844 33.414062 95.105469 32.800781 94.355469 32.800781 "/>
</g>
<g clip-path="url(#clip3)" clip-rule="nonzero">
<path style=" stroke:none;fill-rule:nonzero;fill:rgb(0%,0%,0%);fill-opacity:1;" d="M 52.324219 43.734375 L 95.714844 43.734375 L 95.714844 41 L 52.324219 41 L 52.324219 43.734375 "/>
</g>
<g clip-path="url(#clip4)" clip-rule="nonzero">
<path style=" stroke:none;fill-rule:nonzero;fill:rgb(0%,0%,0%);fill-opacity:1;" d="M 82.152344 49.203125 C 83.144531 49.203125 84.0625 49.488281 84.859375 49.960938 C 85.6875 49.472656 86.617188 49.203125 87.578125 49.203125 C 90.566406 49.203125 93 51.652344 93 54.667969 C 93 57.683594 90.566406 60.136719 87.578125 60.136719 C 86.617188 60.136719 85.6875 59.863281 84.859375 59.378906 C 84.0625 59.847656 83.144531 60.136719 82.152344 60.136719 C 79.160156 60.136719 76.730469 57.683594 76.730469 54.667969 C 76.730469 51.652344 79.160156 49.203125 82.152344 49.203125 Z M 68.59375 60.136719 L 65.882812 60.136719 L 65.882812 57.402344 L 68.59375 57.402344 Z M 63.171875 60.136719 L 60.460938 60.136719 L 60.460938 57.402344 L 63.171875 57.402344 Z M 57.746094 51.933594 L 68.59375 51.933594 L 68.59375 54.667969 L 57.746094 54.667969 L 57.746094 55.207031 C 57.746094 57.835938 57.355469 60.40625 56.625 62.867188 L 94.355469 62.867188 C 95.105469 62.867188 95.714844 62.253906 95.714844 61.503906 L 95.714844 46.46875 L 57.746094 46.46875 L 57.746094 51.933594 "/>
</g>
<path style=" stroke:none;fill-rule:nonzero;fill:rgb(0%,0%,0%);fill-opacity:1;" d="M 37.011719 60.535156 L 35.09375 62.46875 L 38.941406 66.34375 L 46.644531 55.464844 L 44.441406 53.875 L 38.589844 62.125 L 37.011719 60.535156 "/>
</g>
</svg>
